/* XPM */
static const char *ossxmix[] = {
/* width height num_colors chars_per_pixel */
"   121    51      254            2",
/* colors */
".. c #020202",
".# c #36e7fe",
".a c #0ac2fe",
".b c #0481cc",
".c c #fe6666",
".d c #025690",
".e c #02426d",
".f c #6c110d",
".g c #0e3a46",
".h c #e65856",
".i c #f6f6f6",
".j c #a2a2a2",
".k c #66120e",
".l c #06344c",
".m c #62120e",
".n c #cecece",
".o c #022e4e",
".p c #7a7a7a",
".q c #eaeaea",
".r c #8a8a8a",
".s c #022a44",
".t c #76566a",
".u c #cacaca",
".v c #9aeefe",
".w c #7e7e7e",
".x c #5e110d",
".y c #022335",
".z c #c4c4c4",
".A c #5d5d5d",
".B c #1e9aba",
".C c #81ecfe",
".D c #cb4e4b",
".E c #021c2d",
".F c #fe7e7e",
".G c #451210",
".H c #7ce2fd",
".I c #74d6fa",
".J c #b34645",
".K c #525652",
".L c #6eecfe",
".M c #021622",
".N c #be1e1e",
".O c #3b3b3b",
".P c #4ab2d6",
".Q c #12d2fe",
".R c #333333",
".S c #270705",
".T c #0e7292",
".U c #02121c",
".V c #9e6e86",
".W c #0eb6fe",
".X c #65eafe",
".Y c #0a4662",
".Z c #a31d1a",
".0 c #220606",
".1 c #3292be",
".2 c #e6e6e6",
".3 c #025d9d",
".4 c #2ed6fe",
".5 c #8c3d3e",
".6 c #2496b4",
".7 c #0e4c66",
".8 c #d29ea2",
".9 c #020e12",
"#. c #fe928e",
"## c #b0b0b0",
"#a c #252525",
"#b c #57ebfe",
"#c c #2a2a2a",
"#d c #1e1e1e",
"#e c #424242",
"#f c #63dbf9",
"#g c #5bc9f1",
"#h c #1e7e96",
"#i c #025286",
"#j c #7d1511",
"#k c #0363a3",
"#l c #a2768a",
"#m c #2a2e2a",
"#n c #5dcef7",
"#o c #8e8e8e",
"#p c #363a36",
"#q c #4fe6fe",
"#r c #2ea6ba",
"#s c #0f74a8",
"#t c #3db8ec",
"#u c #464646",
"#v c #1e0606",
"#w c #249bd8",
"#x c #2e322e",
"#y c #1f6c79",
"#z c #923636",
"#A c #39dafe",
"#B c #c66a76",
"#C c #027ed6",
"#D c #1a1a1a",
"#E c #bdbdbd",
"#F c #a23e3e",
"#G c #024e82",
"#H c #40aade",
"#I c #06aefe",
"#J c #0265ad",
"#K c #7e2e2a",
"#L c #e1e1e1",
"#M c #fe9696",
"#N c #48dafe",
"#O c #020a10",
"#P c #fe7677",
"#Q c #43f3fe",
"#R c #e66666",
"#S c #25a9e0",
"#T c #74b4ce",
"#U c #1ac6fc",
"#V c #521a1a",
"#W c #929292",
"#X c #c27682",
"#Y c #666666",
"#Z c #0272ba",
"#0 c #42e6fe",
"#1 c #1686a2",
"#2 c #991e1a",
"#3 c #728eae",
"#4 c #30d0fc",
"#5 c #0699f7",
"#6 c #562a32",
"#7 c #4a4a4a",
"#8 c #023e64",
"#9 c #7ff4fe",
"a. c #16bafc",
"a# c #0c6694",
"aa c #161616",
"ab c #fe9a9a",
"ac c #ca2e2e",
"ad c #6a6a6a",
"ae c #47eefe",
"af c #2cc4f3",
"ag c #026ab0",
"ah c #1a627c",
"ai c #1a0606",
"aj c #024a7c",
"ak c #9d9d9d",
"al c #3cdefe",
"am c #8c262c",
"an c #fa7a7e",
"ao c #223252",
"ap c #28b2e2",
"aq c #168dc4",
"ar c #5a1f1f",
"as c #faaeaa",
"at c #040608",
"au c #fe9e9e",
"av c #25b8e9",
"aw c #a02e2c",
"ax c #46bcf0",
"ay c #fe7a7a",
"az c #34aae4",
"aA c #d2d2d2",
"aB c #8e1c17",
"aC c #1ca1d5",
"aD c #ca625e",
"aE c #0e0e0e",
"aF c #fefefe",
"aG c #6e6e6e",
"aH c #d6bac6",
"aI c #6af4fe",
"aJ c #4ff3fe",
"aK c #1e221e",
"aL c #62eefe",
"aM c #4e524e",
"aN c #44eafe",
"aO c #0a6294",
"aP c #b6b6b6",
"aQ c #0e6ea1",
"aR c #1daddb",
"aS c #3bd1f2",
"aT c #1e96be",
"aU c #0282de",
"aV c #026ab9",
"aW c #56e2fe",
"aX c #a9a9a9",
"aY c #be3e3a",
"aZ c #0272c1",
"a0 c #023e6c",
"a1 c #f76565",
"a2 c #1e86ba",
"a3 c #5afafe",
"a4 c #121212",
"a5 c #e26e6e",
"a6 c #0a8ec6",
"a7 c #6e2222",
"a8 c #f75d5c",
"a9 c #360e0d",
"b. c #feadad",
"b# c #dd5a58",
"ba c #023a62",
"bb c #90f7fe",
"bc c #76e2fe",
"bd c #024274",
"be c #14a6e8",
"bf c #9eaabe",
"bg c #858585",
"bh c #f66e6c",
"bi c #b61a16",
"bj c #36e2fe",
"bk c #035b93",
"bl c #74f5fe",
"bm c #56120e",
"bn c #35c8f0",
"bo c #120202",
"bp c #831b17",
"bq c #80fbfe",
"br c #0b0a0b",
"bs c #023256",
"bt c #1382b9",
"bu c #fe7171",
"bv c #f0f0f0",
"bw c #237a8a",
"bx c #d8d8d8",
"by c #068ce3",
"bz c #4ae6fe",
"bA c #1498dd",
"bB c #362636",
"bC c #2e2e46",
"bD c #9e7e9a",
"bE c #5aacc7",
"bF c #24b2f8",
"bG c #2cbce7",
"bH c #2290cb",
"bI c #9bfcfe",
"bJ c #4aeafe",
"bK c #89f3fe",
"bL c #7e86a2",
"bM c #50ebfe",
"bN c #64f6fe",
"bO c #026ebe",
"bP c #024677",
"bQ c #b53533",
"bR c #123a5a",
"bS c #02365b",
"bT c #42e2fe",
"bU c #3ad6f8",
"bV c #0378c9",
"bW c #3de7fe",
"bX c #737373",
"bY c #8aeefe",
"bZ c #3ee2fe",
"b0 c #cd3736",
"b1 c #1876aa",
"b2 c #02253f",
"b3 c #f66a6b",
"b4 c #2e9ed6",
"b5 c #902e2a",
"b6 c #0e79b7",
"b7 c #626262",
/* pixels */
"..................................................................................................................................................................................................................................................",
"..........................................ar.5.5.5.5#6.B#r#r#r#r#r#r#r#r#r#r#r#r#r#1..................................................................................at.7bwbwbwah#O..............................................................",
"......................................a9.J.F.F.F.FaybD#QaNaNaNaNaNaNaNaNaNaNaNaNaN.Q...................................................................................yafaeaN#Qbn#O..............................................................",
"....................................ar#Rayay#P#P#Pb3bEbWbTbTbZbZbZbZbZbZbZbZbZbZbW.a..................................................................................bSbU#0bTaNaR................................................................",
"................................ai.Jayay#P#P#P#P#P#XaSbWbTbZ#q#b#b#b#b#b#b#b#b#b#9.W..................................................................................bkbZbTbTae.T................................................................",
"..............................arb#ayay#P#P#P#P#Pbu#3bWbTbZ#qbYbc.H.H.Hbcbcbcbcbc#n#5.M................................................................................btbZbTbTae.Y................................................................",
"..........................#v#F#Payay#Pa1ay#P#P#Pa8bnbWbTbZbl#t#JaVaVaVaVbObObObOaZby.M................................................................................be#0bTbT.#.U................................................................",
"........................#Vb#ayayayb3bQ.hay#P#Pbu.V.#bTbTbT#q#4bGbGbGbGbGaCbOaVaVaZ#C.y.9.9.9.9.9.........U.9.9.9.9.9.U.U.U.U....at.U.9.9.9.9.9.9.9.9.9.9.9at.....Y#y#h#4#0bTbTal#y#y#y.Y..........................................................",
"....................bo#zbuayay#P.h#2#2#P#P#P#Pb3bEbWbTbTbTbTbT#0#0#0#0bWa.#Saq#Saf#AalbZbZbZ#AbU.6.Ub2.6albZbZbZbWbWbWbWbWbW.6.EajavbUaSaSaSaSaSbUaSaSaSaSap.g#OavaJaN#0bTbTbZbWbWbW#Qav..........................................................",
"...................Gb#ayayayb3b0#2#j.Day#P#P#P#BbnbWbTbTbTbTbTbTbTbZaN#UbG#0bZ#0#0#0#0bT#0bTbT#0a3#tapaN#0bTbTbJbTal#0bTbT#0aJaCbsaqaN#0#0#0bJ#AbU#A#0#0#0aNbTba#SbGaf#0bTbZ#0.LblblbqbE..........................................................",
"................#zbuayay#Pa8ac#2#jbpb3ay#P#PbubL.#bTbZbZbZbjbjbjbjbzblbebUbTbTbZ#bbnaCaf#0bZbZ#b#b.balbTbTbZaI.XbHbtbUbTbTbTaJbA.oav#0bTbZ#b#gbO#ibtbTbTbTbJ#Ab2bdbab6#0bTbZ#q#gazaz#tah..........................................................",
".............Gb#ayayayaya8ac.Zbp.xaYay#P#P#Pa1bnbWbTbZaLbY.C.C.C.CbYazbAbTbTbZbz.H.bbdb6bTbMaIbIbA.baNbTbZbTbYbAbP.dalbTbTbTbW.ba0#AbTbTbZ.XbH#ibs#S#0bTbZbMaR.ybabsaC#0bTbZaWbHbOaZbVb2..........................................................",
"..........#Kbhay#Payabb3ac.ZaB.f.x#Ray#P#P#P#l.#bTbTbZ#9#waU.b.b.b#CbOav#0bTbZ#9#taV#8bd#sa2#H#waV#S#0bTbZbM.IbVa0btaNbTbT#0.4aVa#bTbTbTbZbc#Z.ebs#A#0bTbTaebtbsbaa0af#0bTbZ#fb6agaV#J.M..........................................................",
"......a9b#ayay#Pauas.h.N.Zbp.f.xaw#P#P#P#PanbEbWbTbZbM.IbVbObOaVag#JbOalbTbZbTbba6.3babababd.dag#J#4#0bTbjbKbF#Jbdav#0bTbTaN#UbkaT#0bTbZbJ#g.dbS.daebTbTbTae#ibSba#ibUbTbTbW#f.d.3#k#G............................................................",
".....Sb#.Fay#P.Fb..hb0b0bQawb5b5b#ay#P#Pbu.8aSbZbTbZ#9azaV#J#J#J#kbkaqaNbTbZbMbcbVbkba#8baa0#i.3b6bZbTbZbTbIbybkbkbUbTbTbZae#I.3bG#0bTbZblaTbPbSa2aNbTbT#0bjbababSaQalbTbZ#0.Paj.dbkbs............................................................",
"....a7buay#P#P#P#P#Payayayayayayay#P#Pbu#.#TbWbTbZbzbKbV#kbkbkbk.d#ibn#0bTbZ.L#HaV#iba#8#8babPbPap#0bTbZ.X#NaU#GbtbZbTbZbTbMbyaOalbTbZbZ#9agba#8ap#0bTbZaebGbsbabSaq#0bTbZ#bb1bdaj#G.9............................................................",
".....Dayayayayayayayayayayay#P#P#P#P#P#PasafbWbTbZaI#naVbk#i#i#i#GaQalbTbZbjbKby#Jajba#8#8ba#8bdalbTbTbZbMa.aVbdap#0bTbZ#b#NbVbtaNbTbZbM#f.dba#G#4#0bTbZbNaqbs#8baaR#0bTbTbz#Gba.e.e..............................................................",
"..a9.c.ca1a1a1a1a1a1a1a1a1a1a1#P#P#P#P#.bfbjbTbTbZbKaT#k#ibdbdbda0#w#0bTbZ#b#nbO.3bPbSba#8#8bS#saNbTbTbTbT#4#SaSaNbTbTbZbqbF.3bG#0bTbZaL#tbS.E#sbWbTbZbZbq#G#O.9bS#4#0bTbT#4#sah.l.9..............................................................",
"..bmaBbpbpbpbpbpbpbpbpbpbp#jbQbubububub.#TbjbZal#0.HbV.3aj#8a0#8bPaSbWbZbj#9aCaV.db2.9bs#8#8a0aCaebTbZbZbZbZbZbZbZbZbZ#qbbbA#kbUbZbZbj.LaT.9..aCaNbZbZbMbc.y....ajbj#0bZbZ#0aJ#Qa6................................................................",
"...G.m.x.x.x.x.x.x.x.m.m.x.k.D#Mb.b.b.aHbnbNblblbIazaV.da0atat..bkbMaIblbl.CbV#k.e.....Ub2b2bS#JbnalbM#baLbNbNbNbNbNbl.vax#C#sbT#bblbq.Cag...Uav#0bJaLbI#t....#ObPaRbzbNaIbb#f#I#i................................................................",
"...S.f.m.m.m.m.m.m.m.m.m.m.kam.JaDa5bh.t.3a2#H#tax.b#J#G.s......bd#s.1#Hax#SbO.3b2..........b2ba.daOaQb1bta2bHbHbHbHbH.b#CaVbda#b6bHb4#wbP...y#iaO#sbtb4b6.....Uba#Gbtb4az#waU#5.y................................................................",
".....f.k.m.m.m.m.m.m.m.m.m.m.x.x.faBbiambababPbkaVbO.3bP.U....atbSbSba#i#kbO#k#iat...........s#8bababSbSbaa0bdbP#G#G.d#JbV#ibSbaa0#G.3bOb2...s#8bababPaga0.....E#8babaa0#G.3bVbV..................................................................",
"....bm.k.m.m.m.m.m.m.m.m.m.m.m.m.kbp#2am#8ba#8#i#kag.dbS........bS#8#8bPbkag.3bS............b2#8ba#8ba#8#8#8a0bdbP#G#i#k#Zbs#8#8#8aj.3#k.U..bs#8#8babP#J.y.....s#8#8ba.e#GbkbO#G..................................................................",
"....a9.k.k.m.k.m.k.m.m.m.m.m.m.m.m.k#jambR#8ba.e#i.3#G.y........bs#8ba#8aj.3#i.E.............E#8ba#8ba#8#8#8#8#8#8.ebP.d#k.E#8#8ba.e#i#G..atbS#8#8baa0#i.9....bS#8#8#8#8aj#ibkb2..................................................................",
"....#v.k.k.m.k.m.k.m.m.m.k.m.m.m.m.m.fbpao#8#8ba.e#ibP#O.........o#8babaa0#G.eat.............E#8ba#8ba#8ba#8ba#8baba#8#G.e.E#8ba#8#8ajbS..#Obabababa#8ba......a0#8ba#8ba.eajbP.U..................................................................",
".......0.0.0.0.0.0.0.0.0.0.0.G.k.m.m.m.fbC#8#8#8babdba..........b2#8#8ba#8bP.o...............E.e#8#8ba#8ba#8ba#8ba#8babPb2.E#8#8#8#8.e.E...9#8#8ba#8#8b2.....U.eba#8ba#8#8ba.U....................................................................",
".............................S.m.k.k.m.kbB#8#8#8#8#8.E...........y#8#8#8#8#8.U..............at.s#8#8#8#8#8#8#8#8#8#8ba.satb2#8#8ba#8#8at...M#8#8#8#8#8.M....atbsa0#8#8a0.oat......................................................................",
"...............................0.0#v#v.0br.U.M.U.M.Mat..........#O.M.U.M.U.M.....................M.U.U.U.U.U.U.U.U.M.9....#O.U.M.U.M.U....at.9.U.M.U.M........at.E.E.E.Eat........................................................................",
"..................................................................................................................................................................................................................................................",
"..........................aK#x#m#m#m#m#m#m#m#m#m#m#m#m#m#m#m#m#m#m#m#m#m#m#m#m#m#m#m#m#m#m#m#m#m#m#m#m#m#m#m#m#m#m#m#m#m#m#m#m#m#m#m#m#m#m#m#m#m#m#m#m#m#m#m#m#m#m#m#m#m#m#m#m#m#m#m#m#m#m#m#m#m#m#m#m#m#m#m#m#m#m#m#m#m#m#m#m#m#m#m#m#m#m#m#m#x#d",
"..........................#p.KaMaMaMaMaMaMaMaMaMaMaMaMaMaMaMaMaMaMaMaMaMaMaMaMaMaMaMaMaMaMaMaMaMaMaMaMaMaMaMaMaMaMaMaMaMaMaMaMaMaMaMaMaMaMaMaMaMaMaMaMaMaMaMaMaMaMaMaMaMaMaMaMaMaMaMaMaMaMaMaMaMaMaMaMaMaMaMaMaMaMaMaMaMaMaMaMaMaMaMaMaMaMaMaM.K.R",
"..........................#p.KaMaMaMaMaMaMaMaMaMaMaMaMaMaMaMaMaMaMaMaMaMaMaMaMaMaMaMaMaMaMaMaMaMaMaMaMaMaMaMaMaMaMaMaMaMaMaMaMaMaMaMaMaMaMaMaMaMaMaMaMaMaMaMaMaMaMaMaMaMaMaMaMaMaMaMaMaMaMaMaMaMaMaMaMaMaMaMaMaMaMaMaMaMaMaMaMaMaMaMaMaMaMaMaM.K.R",
"..........................#d#m#c#c#c#c#c#c#c#c#c#c#c#c#c#c#c#c#c#c#c#c#c#c#c#c#c#c#c#c#c#c#c#c#c#c#c#c#c#c#c#c#c#c#c#c#c#c#c#c#c#c#c#c#c#c#c#c#c#c#c#c#c#c#c#c#c#c#c#c#c#c#c#c#c#c#c#c#c#c#c#c#c#c#c#c#c#c#c#c#c#c#c#c#c#c#c#c#c#c#c#c#c#c#c#c#m#d",
"..................................................................................................................................................................................................................................................",
".......................................................................................................OaMaMaMaMaM#7......................a4#E#W....................................bX.i...............................O#a........................",
"......................................................................................................#EbxaAaF.zaAbv#e....................brbx.j....................................adaF..............................bx#o........................",
"......................................................................................................ak....aF#a..ak#Y......................##ak....................................#maF..............................aGaM........................",
"......................................................................................................#c....aF.R..#aaa......................##ak.....................................RaF....................................................at....",
"............................................................................................................aF.R......ataX.q##.....RaPaFaX..###E#EaF.r..#u##.O##.i.R....#e##bv###a...RaF....#D#Ebvak#c..#DaG#Lbv.A.A#abg.p....bX#Lbx#a...K#LbvaM..",
"............................................................................................................aF.R......##.p#DaXak...u.A#maX..###L#7bXaF..#daFaX#makbvaa..#EaK#d.j#E..#maF.....n.A#d#E##..aG.z#D.jaF.z..#L.r..bXaP#d.K.q.R.2#d#aak..",
"............................................................................................................aF.R....aM#L.....waAbX##........##ak...RaFb7..bv.R....aF#Dad.2.....AaF#u#caF...r#E....#eaF.R.q.O..at.iaa...ubgat.ibr..#daF.OaFaK......",
"............................................................................................................aF.R....aGaFaXaPbxaX#oak........aP.j...RaFad..bv.O..ataF#DbX#L.......i.K#caF..ak#E......aF.R.zaX..aK##.....ubgaEaFaPaP#Ebv#m.i.ibxbXbr",
"............................................................................................................aF.R....aG#L........#W##........aP.j...RaFad..bv.O..ataF#DbX.2.......i.K#caF..ak#E......aF.R#uaFaGaA.O.....ubgaEaFat.........RbX.naF.O",
"............................................................................................................aF#m....#7aFaM......bgbx........##ak...RaFad..bv.R..ataF#D.Abv.......n..#caF..bgaF#m..braF#dat##..br.......ubg..bv.j......aK.O.....i.O",
"........................................................................................................aa.AaF.w......bx.nad.pb7#aaF##b7bX#ebx.j...RaFakataF#o#DataFaGaEbvaX...paP...waF#e#DaFaM..ak#W...AaF.wbgbgaE#d.2##...waFbXadbg#e##...OaP..",
".........................................................................................................RaX#EaPaM....aK.z.u#YaE..bX.u.uaM.r#E###m...r###o#EaP#7..aX.j..#c.uakakaa..aX#Ebg..#u#Eak.j....#Ybx.u.n.i.n#e#E#Ea4...j.u#EaM#caAak##aE..",
".........................................................................................................................................................................................................i#m.....A.q..............................",
"........................................................................................................................................................................................................aF#a....#Ybx..............................",
".........................................................................................................................................................................................................i.R....aAad..............................",
".........................................................................................................................................................................................................O##bv.zb7................................",
"..........................................................................................................................................................................................................at.OaE.................................."
};
