/* XPM */
const char * alsalogo_xpm[] = {
"50 50 398 2",
"  	c None",
". 	c #C0C0C0",
"+ 	c #BEC1BE",
"@ 	c #9EAD9D",
"# 	c #889687",
"$ 	c #7D8A7C",
"% 	c #788477",
"& 	c #9AA799",
"* 	c #484D47",
"= 	c #3A3F3A",
"- 	c #515551",
"; 	c #6C706B",
"> 	c #8F958F",
", 	c #ADAFAD",
"' 	c #BCBCBB",
") 	c #BEC0BE",
"! 	c #606A60",
"~ 	c #515651",
"{ 	c #646664",
"] 	c #828282",
"^ 	c #A2A4A1",
"/ 	c #EEEEED",
"( 	c #FEFEFC",
"_ 	c #A7B7A5",
": 	c #7E8B7D",
"< 	c #414542",
"[ 	c #5C5E5C",
"} 	c #BCBDBB",
"| 	c #F6F6F4",
"1 	c #8B978A",
"2 	c #4A4F4A",
"3 	c #939493",
"4 	c #C7C9C6",
"5 	c #5C655C",
"6 	c #4C4D4C",
"7 	c #C3C4C2",
"8 	c #768176",
"9 	c #626262",
"0 	c #E9E9E7",
"a 	c #93A291",
"b 	c #5E625E",
"c 	c #7B7B7A",
"d 	c #838482",
"e 	c #FCFCFB",
"f 	c #F3F4F1",
"g 	c #EBECE9",
"h 	c #E6E6E4",
"i 	c #E7E7E5",
"j 	c #EEEEEC",
"k 	c #FDFDFB",
"l 	c #FAFAF9",
"m 	c #CBCFCA",
"n 	c #969796",
"o 	c #737A73",
"p 	c #787D77",
"q 	c #7C817C",
"r 	c #798079",
"s 	c #727871",
"t 	c #9D9F9D",
"u 	c #EDEEEB",
"v 	c #F8F8F6",
"w 	c #D3D4D2",
"x 	c #9DA09D",
"y 	c #727672",
"z 	c #CBCBCB",
"A 	c #E5E6E4",
"B 	c #F6F7F4",
"C 	c #F4F5F2",
"D 	c #DFE0DE",
"E 	c #707370",
"F 	c #C0C2C0",
"G 	c #FCFCFA",
"H 	c #ADB3AD",
"I 	c #515452",
"J 	c #939793",
"K 	c #F1F1EF",
"L 	c #BFC4BE",
"M 	c #F4F5F4",
"N 	c #FBFBFA",
"O 	c #B7BAB7",
"P 	c #A2A5A0",
"Q 	c #F9FAF8",
"R 	c #F5F5F3",
"S 	c #BABDBA",
"T 	c #727472",
"U 	c #CBCECC",
"V 	c #F5F5F4",
"W 	c #E2E3E1",
"X 	c #CFD4CE",
"Y 	c #B5B7B4",
"Z 	c #777777",
"` 	c #303231",
" .	c #8F918F",
"..	c #A5A7A4",
"+.	c #B9BCB8",
"@.	c #CACDC9",
"#.	c #F7F7F5",
"$.	c #EFF0ED",
"%.	c #D0D0CE",
"&.	c #C1C2C1",
"*.	c #909690",
"=.	c #6D746D",
"-.	c #727972",
";.	c #98A398",
">.	c #BFC9BE",
",.	c #BDD0BC",
"'.	c #BCD1BE",
").	c #C0D5C1",
"!.	c #C4D9C5",
"~.	c #C4D8C3",
"{.	c #C3D8C4",
"].	c #C3D5C2",
"^.	c #C0D0C0",
"/.	c #B1BDB2",
"(.	c #878F87",
"_.	c #9CA59C",
":.	c #E0E7DF",
"<.	c #E6E9E5",
"[.	c #F0F0EE",
"}.	c #FBFBF9",
"|.	c #3A403A",
"1.	c #747673",
"2.	c #363936",
"3.	c #7F8B7F",
"4.	c #CCE0CC",
"5.	c #DAF2DB",
"6.	c #D8EFD7",
"7.	c #D7EED6",
"8.	c #D6ECD4",
"9.	c #D4EBD4",
"0.	c #D2E9D4",
"a.	c #D1E8D3",
"b.	c #CEE5CF",
"c.	c #CDE4CE",
"d.	c #CFE6D0",
"e.	c #CCE2CD",
"f.	c #BCCEBC",
"g.	c #BCC5BC",
"h.	c #DBDEDB",
"i.	c #F9F9F8",
"j.	c #8B8D8A",
"k.	c #606961",
"l.	c #B3C4B4",
"m.	c #D7EED8",
"n.	c #D3E9D4",
"o.	c #D4EAD4",
"p.	c #859185",
"q.	c #666F65",
"r.	c #C2D6C0",
"s.	c #1C1E1D",
"t.	c #B8CCBA",
"u.	c #535853",
"v.	c #454C46",
"w.	c #99A999",
"x.	c #CCE3CD",
"y.	c #5E675F",
"z.	c #8A958B",
"A.	c #C8DEC9",
"B.	c #C9DFCA",
"C.	c #CBE2CC",
"D.	c #CDDECE",
"E.	c #E5EEE5",
"F.	c #F6FBF4",
"G.	c #F9F9F7",
"H.	c #B7BAB6",
"I.	c #656E65",
"J.	c #D3EAD5",
"K.	c #D3E9D2",
"L.	c #6D776D",
"M.	c #525A52",
"N.	c #1C1E1C",
"O.	c #161717",
"P.	c #A0B1A1",
"Q.	c #4F5750",
"R.	c #6E776E",
"S.	c #C7DAC6",
"T.	c #C8DDC8",
"U.	c #D4E1D4",
"V.	c #F5F7F3",
"W.	c #CCCDCA",
"X.	c #3B3D3B",
"Y.	c #D5ECD5",
"Z.	c #CEE5D0",
"`.	c #CCDFCA",
" +	c #565B57",
".+	c #191A1A",
"++	c #9CAE9D",
"@+	c #535854",
"#+	c #C2D6C3",
"$+	c #C7D9C5",
"%+	c #C3DAC4",
"&+	c #C2DAC4",
"*+	c #CCDFCC",
"=+	c #EFF3EE",
"-+	c #C9CAC8",
";+	c #9EAC9D",
">+	c #D0E7D1",
",+	c #D3EAD4",
"'+	c #C1D3C0",
")+	c #353735",
"!+	c #505850",
"~+	c #C0D4BF",
"{+	c #727A73",
"]+	c #676E68",
"^+	c #535B54",
"/+	c #303230",
"(+	c #B6C9B7",
"_+	c #C5D8C4",
":+	c #CED8CC",
"<+	c #D9DBD9",
"[+	c #C1D3C1",
"}+	c #D0E7D2",
"|+	c #B5C6B3",
"1+	c #202221",
"2+	c #494F49",
"3+	c #B8CAB7",
"4+	c #C3D6C3",
"5+	c #454B45",
"6+	c #CAE1CB",
"7+	c #C5DAC6",
"8+	c #585F59",
"9+	c #1F2020",
"0+	c #ACBEAD",
"a+	c #C4DAC4",
"b+	c #C1D5BF",
"c+	c #F2F2F0",
"d+	c #D3E1D2",
"e+	c #D0E6D1",
"f+	c #ADBEAB",
"g+	c #141515",
"h+	c #484C48",
"i+	c #A3B3A3",
"j+	c #616962",
"k+	c #858F85",
"l+	c #B4C6B5",
"m+	c #535754",
"n+	c #0E0E0F",
"o+	c #A1B3A2",
"p+	c #C6D9C5",
"q+	c #959995",
"r+	c #CEE5CE",
"s+	c #0A0B0B",
"t+	c #545954",
"u+	c #909D90",
"v+	c #A0AF9F",
"w+	c #454946",
"x+	c #9EAD9F",
"y+	c #565B56",
"z+	c #070808",
"A+	c #98A999",
"B+	c #BACAB9",
"C+	c #636763",
"D+	c #EEF0ED",
"E+	c #D8E8D8",
"F+	c #9EB0A0",
"G+	c #222423",
"H+	c #646864",
"I+	c #6E746E",
"J+	c #B4C8B5",
"K+	c #222424",
"L+	c #828B83",
"M+	c #676B67",
"N+	c #1F201F",
"O+	c #97A798",
"P+	c #C7DBC6",
"Q+	c #BFD3BD",
"R+	c #99A698",
"S+	c #8C8E8C",
"T+	c #F8F8F7",
"U+	c #F2F4F1",
"V+	c #9EAFA0",
"W+	c #0B0B0C",
"X+	c #171817",
"Y+	c #4B504B",
"Z+	c #B6CAB8",
"`+	c #AABAAA",
" @	c #3E413F",
".@	c #707670",
"+@	c #1B1C1B",
"@@	c #0D0D0E",
"#@	c #95A596",
"$@	c #C1D6C1",
"%@	c #9CA79C",
"&@	c #4D514E",
"*@	c #EDEEEC",
"=@	c #F6F7F5",
"-@	c #E4ECE3",
";@	c #CCDECB",
">@	c #CADFCA",
",@	c #CFE6D1",
"'@	c #3C3E3C",
")@	c #5E675E",
"!@	c #383A38",
"~@	c #6E786F",
"{@	c #B3C6B4",
"]@	c #555D55",
"^@	c #484D49",
"/@	c #869187",
"(@	c #616861",
"_@	c #4F534F",
":@	c #828C81",
"<@	c #C4D7C3",
"[@	c #BBCDBB",
"}@	c #919E91",
"|@	c #575C58",
"1@	c #A7AAA6",
"2@	c #A2A3A1",
"3@	c #E4E5E5",
"4@	c #C3C8C1",
"5@	c #CBE0CB",
"6@	c #B2C2B2",
"7@	c #AFC2AF",
"8@	c #B5C9B6",
"9@	c #9CA89C",
"0@	c #97A498",
"a@	c #93A093",
"b@	c #BCCFBD",
"c@	c #A8B8A9",
"d@	c #A5B3A5",
"e@	c #B2C4B2",
"f@	c #B1C2B0",
"g@	c #AAB7AA",
"h@	c #C5D8C3",
"i@	c #C5D1C3",
"j@	c #BBC2B9",
"k@	c #757B75",
"l@	c #7B7F7B",
"m@	c #EEEFEC",
"n@	c #E7EBE6",
"o@	c #BFC5BE",
"p@	c #A2ABA2",
"q@	c #B2BDB2",
"r@	c #B9C8B9",
"s@	c #BCCEBB",
"t@	c #B9CAB8",
"u@	c #B6C8B5",
"v@	c #AEC0AD",
"w@	c #AABCA9",
"x@	c #A4B1A4",
"y@	c #A2ADA2",
"z@	c #889087",
"A@	c #616260",
"B@	c #7A7F7A",
"C@	c #BEBEBD",
"D@	c #CECFCD",
"E@	c #E0E2DF",
"F@	c #C1C5C0",
"G@	c #979997",
"H@	c #7E817F",
"I@	c #6C736C",
"J@	c #515451",
"K@	c #333533",
"L@	c #595D59",
"M@	c #656B65",
"N@	c #6E716F",
"O@	c #959795",
"P@	c #BCBFBC",
"Q@	c #E3E7E3",
"R@	c #F7F8F6",
"S@	c #BCBDBA",
"T@	c #EBECEA",
"U@	c #A4ACA4",
"V@	c #535653",
"W@	c #B7B8B6",
"X@	c #616B60",
"Y@	c #F7F7F6",
"Z@	c #E2E6E1",
"`@	c #7D817E",
" #	c #838582",
".#	c #D1D2D0",
"+#	c #CACECA",
"@#	c #868A86",
"##	c #F3F4F2",
"$#	c #FAFBF9",
"%#	c #B1B4AF",
"&#	c #505450",
"*#	c #626562",
"=#	c #E0E0DF",
"-#	c #F5F6F3",
";#	c #B3B5B3",
">#	c #606260",
",#	c #818480",
"'#	c #959894",
")#	c #878B86",
"!#	c #696B69",
"~#	c #565756",
"{#	c #919491",
"]#	c #BDBDBC",
"^#	c #EAEAE8",
"/#	c #A7B7A6",
"(#	c #BFC3BE",
"_#	c #7F807F",
":#	c #7D7E7E",
"<#	c #808181",
"[#	c #929391",
"}#	c #B8BBB7",
"|#	c #7A7A7A",
"1#	c #93A292",
". . . . . . . . . . . . . . . . . . . . + @ # $ % % $ # @ + . . . . . . . . . . . . . . . . . . . . ",
". . . . . . . . . . . . . . . . . & * = - ; > , ' ' , > ; - = * & . . . . . . . . . . . . . . . . . ",
". . . . . . . . . . . . . . ) ! ~ { ] ^ / ( ( ( ( ( ( ( ( / ^ ] { ~ ! ) . . . . . . . . . . . . . . ",
". . . . . . . . . . . . _ : < [ } | ( ( ( ( ( ( ( ( ( ( ( ( ( ( | } [ < : _ . . . . . . . . . . . . ",
". . . . . . . . . . . 1 2 3 4 ( ( ( ( ( ( ( ( ( ( ( ( ( ( ( ( ( ( ( ( 4 3 2 1 . . . . . . . . . . . ",
". . . . . . . . . . 5 6 7 ( ( ( ( ( ( ( ( ( ( ( ( ( ( ( ( ( ( ( ( ( ( ( ( 7 6 5 . . . . . . . . . . ",
". . . . . . . . . 8 9 0 ( ( ( ( ( ( ( ( ( ( ( ( ( ( ( ( ( ( ( ( ( ( ( ( ( ( 0 9 8 . . . . . . . . . ",
". . . . . . . a b c ( ( ( ( ( ( ( ( ( ( ( ( ( ( ( ( ( ( ( ( ( ( ( ( ( ( ( ( ( ( c b a . . . . . . . ",
". . . . . . . b d e ( ( ( ( ( ( ( ( ( ( ( ( ( ( ( ( ( ( ( ( ( ( ( ( ( ( ( ( ( ( e d b . . . . . . . ",
". . . . . . 8 c e ( ( ( ( ( ( ( ( ( ( ( ( ( ( ( ( ( ( ( ( ( ( ( ( ( ( ( ( ( ( ( ( e c 8 . . . . . . ",
". . . . . 5 9 ( ( ( ( ( ( ( ( ( ( ( ( ( ( ( ( ( ( ( ( ( ( ( ( ( ( ( ( ( ( ( ( ( ( ( ( 9 5 . . . . . ",
". . . . 1 6 0 ( ( ( ( ( ( ( ( ( ( ( ( ( ( ( ( ( ( ( ( ( ( ( f g h i j k ( ( ( ( ( ( ( 0 6 1 . . . . ",
". . . _ 2 7 ( ( ( ( ( ( ( ( ( ( ( ( ( ( ( ( ( ( ( ( ( l m n o p q r s t u ( ( ( ( ( ( ( 7 2 _ . . . ",
". . . : 3 ( ( ( ( ( ( ( ( ( ( ( ( ( ( ( ( ( ( ( ( v w x { y z A B C D E F G ( ( ( ( ( ( ( 3 : . . . ",
". . ) < 4 ( ( ( ( ( ( ( ( ( ( ( ( ( ( ( ( ( ( ( ( H I J K ( ( ( ( ( ( G L M ( ( ( ( ( ( ( 4 < ) . . ",
". . ! [ ( ( ( ( ( ( ( ( ( ( ( ( ( ( ( ( ( ( N O o P u ( ( ( ( ( ( ( ( ( k Q ( ( ( ( ( ( ( ( [ ! . . ",
". . ~ } ( ( ( ( ( ( ( ( ( ( ( ( ( ( ( ( ( R S T U ( ( ( ( ( ( ( ( ( ( ( ( ( ( ( ( ( ( ( ( ( } ~ . . ",
". & { | ( ( ( ( ( ( ( ( ( ( ( ( k V W X Y Z `  ...+.@.h #.( ( ( ( ( ( ( ( ( ( ( ( ( ( ( ( ( | { & . ",
". * ] ( ( ( ( ( ( ( ( ( $.%.&.*.=.-.;.>.,.'.).!.~.{.].^./.(._.:.<.[.}.( ( ( ( ( ( ( ( ( ( ( ( ] * . ",
". |.^ ( ( ( ( ( ( ( ( R 1.2.3.4.5.6.7.8.9.0.0.0.0.a.b.c.c.c.d.e.f.g.h.( ( ( ( ( ( ( ( ( ( ( ( ^ |.. ",
"+ - / ( ( ( ( ( ( i.j.k.l.m.9.n.o.8.8.p.q.r.s.t.0.u.v.w.x.y.z.x.A.B.C.D.E.F.( ( ( ( ( ( ( ( ( / - + ",
"@ ; ( ( ( ( ( ( G.H.I.d.J.0.0.o.8.8.K.L.M.r.N.t.0.O.P.c.c.Q.R.C.A.A.A.S.T.U.V.e ( ( ( ( ( ( ( ( ; @ ",
"# > ( ( ( ( ( ( W.X.Y.Z.0.0.0.o.8.8.`. +M.r.N.t.0..+++c.c.Q.@+#+A.A.A.$+%+&+*+=+( ( ( ( ( ( ( ( > # ",
"$ , ( ( ( ( ( ( -+;+>+b.0.0.0.,+8.8.'+)+!+~+N.t.0.{+]+c.c.^+/+(+A.A.A.$+%+&+_+:+G ( ( ( ( ( ( ( , $ ",
"% ' ( ( ( ( ( ( <+[+c.c.}+0.0.o.8.8.|+1+2+3+N.t.0.4+5+6+7+8+9+0+A.A.A.$+%+&+a+b+/ ( ( ( ( ( ( ( ' % ",
"% ' ( ( ( ( ( ( c+d+c.c.e+0.0.0.n.8.f+g+h+i+N.t.0.0.j+k+l+m+n+o+A.A.A.$+%+&+p+b+q+#.( ( ( ( ( ( ' % ",
"$ , ( ( ( ( ( ( G =+r+c.b.a.0.0.0.,+o+s+t+u+N.t.0.b.v+w+x+y+z+A+A.A.A.$+%+&+_+B+C+D+( ( ( ( ( ( , $ ",
"# > ( ( ( ( ( ( ( ( E+c.c.b.a.0.0.0.F+G+H+I+s.t.}+c.J+K+L+M+N+O+A.A.P+$+%+&+Q+R+S+T+( ( ( ( ( ( > # ",
"@ ; ( ( ( ( ( ( ( ( U+U.x.c.c.a.0.0.V+W+X+Y+N.Z+c.c.`+ @.@+@@@#@A.A.P+$+%+$@%@&@*@( ( ( ( ( ( ( ; @ ",
"+ - / ( ( ( ( ( ( ( ( =@-@;@>@b.,@0.F+'@)@!@s.~@{@]@^@/@(@@+_@:@A.T.S.<@[@}@|@1@( ( ( ( ( ( ( / - + ",
". = 2@( ( ( ( ( ( ( ( ( ( }.3@4@[+5@6@7@8@9@0@a@b@c@l.c.d@e@f@g@h@i@j@k@/+l@=@( ( ( ( ( ( ( ( 2@= . ",
". * ] ( ( ( ( ( ( ( ( ( ( ( G m@n@o@p@q@r@s@t@u@J+u@u@u@v@w@x@y@z@A@B@C@D@$.( ( ( ( ( ( ( ( ( ] * . ",
". & { | ( ( ( ( ( ( ( ( ( ( ( ( ( ( ( Q E@F@G@H@I@J@K@L@M@N@O@P@Q@R@( ( ( ( ( ( ( ( ( ( ( ( | { & . ",
". . ~ S@( ( ( ( ( ( ( ( ( ( ( ( ( ( ( ( ( ( }.T@U@V@W@m@f G.G ( ( ( ( ( ( ( ( ( ( ( ( ( ( ( S@~ . . ",
". . X@[ ( ( ( ( ( ( ( ( Y@e ( ( ( ( ( ( ( k Z@`@ #.#G.( ( ( ( ( ( ( ( ( ( ( ( ( ( ( ( ( ( ( [ X@. . ",
". . . < 4 ( ( ( ( ( ( ( +#@###( ( ( ( $#%#&#*#=#( ( ( ( ( ( ( ( ( ( ( ( ( ( ( ( ( ( ( ( ( 4 < . . . ",
". . . : 3 ( ( ( ( ( ( ( -#;#>#,#'#)#!#~#{#]#^#G ( ( ( ( ( ( ( ( ( ( ( ( ( ( ( ( ( ( ( ( ( 3 : . . . ",
". . . /#2 7 ( ( ( ( ( ( ( f (#_#:#<#[#}#Y@( ( ( ( ( ( ( ( ( ( ( ( ( ( ( ( ( ( ( ( ( ( ( 7 2 /#. . . ",
". . . . 1 6 0 ( ( ( ( ( ( ( ( G }.G ( ( ( ( ( ( ( ( ( ( ( ( ( ( ( ( ( ( ( ( ( ( ( ( ( 0 6 1 . . . . ",
". . . . . 5 9 ( ( ( ( ( ( ( ( ( ( ( ( ( ( ( ( ( ( ( ( ( ( ( ( ( ( ( ( ( ( ( ( ( ( ( ( 9 5 . . . . . ",
". . . . . . 8 |#e ( ( ( ( ( ( ( ( ( ( ( ( ( ( ( ( ( ( ( ( ( ( ( ( ( ( ( ( ( ( ( ( e |#8 . . . . . . ",
". . . . . . . b d e ( ( ( ( ( ( ( ( ( ( ( ( ( ( ( ( ( ( ( ( ( ( ( ( ( ( ( ( ( ( e d b . . . . . . . ",
". . . . . . . 1#b |#( ( ( ( ( ( ( ( ( ( ( ( ( ( ( ( ( ( ( ( ( ( ( ( ( ( ( ( ( ( |#b 1#. . . . . . . ",
". . . . . . . . . 8 9 0 ( ( ( ( ( ( ( ( ( ( ( ( ( ( ( ( ( ( ( ( ( ( ( ( ( ( 0 9 8 . . . . . . . . . ",
". . . . . . . . . . 5 6 7 ( ( ( ( ( ( ( ( ( ( ( ( ( ( ( ( ( ( ( ( ( ( ( ( 7 6 5 . . . . . . . . . . ",
". . . . . . . . . . . 1 2 3 4 ( ( ( ( ( ( ( ( ( ( ( ( ( ( ( ( ( ( ( ( 4 3 2 1 . . . . . . . . . . . ",
". . . . . . . . . . . . /#: < [ S@| ( ( ( ( ( ( ( ( ( ( ( ( ( ( | S@[ < : /#. . . . . . . . . . . . ",
". . . . . . . . . . . . . . . X@~ { ] 2@/ ( ( ( ( ( ( ( ( / 2@] { ~ X@. . . . . . . . . . . . . . . ",
". . . . . . . . . . . . . . . . . & * |.- ; > , ' ' , > ; - |.* & . . . . . . . . . . . . . . . . . ",
". . . . . . . . . . . . . . . . . . . . + @ # $ % % $ # @ + . . . . . . . . . . . . . . . . . . . . "};
