/* XPM */
char const * b_blank_xpm[] = {
"13 13 43 1",
" 	c #333339",
".	c #34343A",
"+	c #1C1F22",
"@	c #1A1E20",
"#	c #212527",
"$	c #797B7C",
"%	c #838585",
"&	c #202426",
"*	c #999A9B",
"=	c #929394",
"-	c #1E2224",
";	c #222628",
">	c #262A2C",
",	c #1C2022",
"'	c #8A8B8C",
")	c #BCBCBD",
"!	c #2C3032",
"~	c #A3A4A5",
"{	c #BFC0C0",
"]	c #606264",
"^	c #555859",
"/	c #CACACA",
"(	c #656768",
"_	c #535657",
":	c #C4C4C4",
"<	c #C8C8C8",
"[	c #4E5152",
"}	c #A9AAAA",
"|	c #BABABB",
"1	c #1F2325",
"2	c #626466",
"3	c #C9C9C9",
"4	c #C3C3C3",
"5	c #707273",
"6	c #1B1F21",
"7	c #8B8C8D",
"8	c #CCCCCC",
"9	c #C2C2C2",
"0	c #2D3132",
"a	c #B9B9B9",
"b	c #8B8D8D",
"c	c #505354",
"d	c #454849",
" ............",
" +++++++++++.",
" +@@@@@@#$%@.",
" +@@@@@&*=-@.",
" +;>@@,')!@@.",
" +~{]@^/(@@@.",
" +_:<[}|1@@@.",
" +@234/5@@@@.",
" +@67890@@@@.",
" +@@>ab@@@@@.",
" +@@@cd@@@@@.",
" +@@@@@@@@@@.",
" ............"};
