/* XPM */
char const * b_card2_xpm[] = {
"13 13 43 1",
" 	c #666659",
".	c #69684D",
"+	c #8F8C2F",
"@	c #E6E040",
"#	c #FFFB7F",
"$	c #908D2F",
"%	c #FFFB7E",
"&	c #605E2F",
"*	c #292814",
"=	c #4E4D27",
"-	c #DBD86C",
";	c #918E2F",
">	c #FFFB7D",
",	c #C3C060",
"'	c #B4B158",
")	c #6F6D36",
"!	c #928F2F",
"~	c #FFFB7C",
"{	c #EFEB74",
"]	c #3A391C",
"^	c #93902F",
"/	c #FEFA7B",
"(	c #9C9A4C",
"_	c #7B793B",
":	c #94912F",
"<	c #FEFA7A",
"[	c #E8E46F",
"}	c #2F2E16",
"|	c #EBE771",
"1	c #95922F",
"2	c #4C4B24",
"3	c #B9B659",
"4	c #FEFA79",
"5	c #8E8C44",
"6	c #797739",
"7	c #96932F",
"8	c #FEFA78",
"9	c #131309",
"0	c #2B2A14",
"a	c #504E26",
"b	c #6F6E4C",
"c	c #A39F2F",
"d	c #FAF56B",
" .+++++++++. ",
".+@@@@@@@@@+.",
"+@##########+",
"$@%%%&*=-%%%$",
";@>>>,>')>>>;",
"!@~~~~~{]~~~!",
"^@/////(_///^",
":@<<<<[}|<<<:",
"1@<<<<23<<<<1",
"1@44456444441",
"7@88890}a8887",
"bcdddddddddcb",
" bcccccccccb "};
