/* XPM */
char const * b_card1_xpm[] = {
"13 13 33 1",
" 	c #666659",
".	c #69684D",
"+	c #8F8C2F",
"@	c #E6E040",
"#	c #FFFB7F",
"$	c #908D2F",
"%	c #FFFB7E",
"&	c #A7A453",
"*	c #232211",
"=	c #242312",
"-	c #918E2F",
";	c #FFFB7D",
">	c #D7D469",
",	c #E1DD6E",
"'	c #2B2A15",
")	c #928F2F",
"!	c #FFFB7C",
"~	c #93902F",
"{	c #FEFA7B",
"]	c #94912F",
"^	c #FEFA7A",
"/	c #95922F",
"(	c #FEFA79",
"_	c #2B2A14",
":	c #96932F",
"<	c #FEFA78",
"[	c #A9A750",
"}	c #1B1A0D",
"|	c #040402",
"1	c #C2BF5C",
"2	c #6F6E4C",
"3	c #A39F2F",
"4	c #FAF56B",
" .+++++++++. ",
".+@@@@@@@@@+.",
"+@##########+",
"$@%%&*=%%%%%$",
"-@;;>,';;;;;-",
")@!!!!'!!!!!)",
"~@{{{{'{{{{{~",
"]@^^^^'^^^^^]",
"/@^^^^'^^^^^/",
"/@((((_(((((/",
":@<<[}|}1<<<:",
"2344444444432",
" 23333333332 "};
