/* XPM */
char const * b_card3_xpm[] = {
"13 13 50 1",
" 	c #666659",
".	c #69684D",
"+	c #8F8C2F",
"@	c #E6E040",
"#	c #FFFB7F",
"$	c #908D2F",
"%	c #FFFB7E",
"&	c #E0DC6F",
"*	c #302F18",
"=	c #2F2E17",
"-	c #4B4A25",
";	c #D5D269",
">	c #918E2F",
",	c #FFFB7D",
"'	c #F9F57A",
")	c #C4C160",
"!	c #58572B",
"~	c #928F2F",
"{	c #FFFB7C",
"]	c #B5B258",
"^	c #636130",
"/	c #93902F",
"(	c #FEFA7B",
"_	c #CAC762",
":	c #201F0F",
"<	c #252412",
"[	c #F1ED75",
"}	c #94912F",
"|	c #FEFA7A",
"1	c #FBF779",
"2	c #898742",
"3	c #757338",
"4	c #95922F",
"5	c #E8E46F",
"6	c #403F1F",
"7	c #FEFA79",
"8	c #E4E16D",
"9	c #F7F376",
"0	c #959347",
"a	c #868440",
"b	c #96932F",
"c	c #FEFA78",
"d	c #BBB858",
"e	c #2C2B15",
"f	c #302F17",
"g	c #6A6832",
"h	c #E9E56E",
"i	c #6F6E4C",
"j	c #A39F2F",
"k	c #FAF56B",
" .+++++++++. ",
".+@@@@@@@@@+.",
"+@##########+",
"$@%%&*=-;%%%$",
">@,,'',)!,,,>",
"~@{{{{{]^{{{~",
"/@(((_:<[(((/",
"}@||||123|||}",
"4@|||||56|||4",
"4@778970a7774",
"b@ccdefghcccb",
"ijkkkkkkkkkji",
" ijjjjjjjjji "};
