/* XPM */
char const * b_mute_xpm[] = {
"30 22 122 2",
"  	c #665C59",
". 	c #69544D",
"+ 	c #8F462F",
"@ 	c #E66840",
"# 	c #FF9E7F",
"$ 	c #201410",
"% 	c #7B4C3D",
"& 	c #7E4E3F",
"* 	c #3B251D",
"= 	c #3F271F",
"- 	c #452B22",
"; 	c #0E0907",
"> 	c #422921",
", 	c #261813",
"' 	c #603B30",
") 	c #90472F",
"! 	c #FF9D7E",
"~ 	c #3A241D",
"{ 	c #412820",
"] 	c #402720",
"^ 	c #3D261E",
"/ 	c #3B241D",
"( 	c #91472F",
"_ 	c #FF9D7D",
": 	c #754839",
"< 	c #CA7C63",
"[ 	c #724638",
"} 	c #92472F",
"| 	c #FF9C7C",
"1 	c #CE7E64",
"2 	c #714537",
"3 	c #704536",
"4 	c #CB7C63",
"5 	c #261712",
"6 	c #78493A",
"7 	c #93472F",
"8 	c #FE9B7B",
"9 	c #3B241C",
"0 	c #422820",
"a 	c #3F261E",
"b 	c #3E261E",
"c 	c #FB997A",
"d 	c #FC9A7A",
"e 	c #41281F",
"f 	c #94482F",
"g 	c #FE9A7A",
"h 	c #A2624E",
"i 	c #9F614D",
"j 	c #7A4A3A",
"k 	c #BA7159",
"l 	c #BE735B",
"m 	c #7D4B3C",
"n 	c #95482F",
"o 	c #E0886C",
"p 	c #643C30",
"q 	c #40271F",
"r 	c #633C2F",
"s 	c #E2896D",
"t 	c #543328",
"u 	c #6F554C",
"v 	c #A34B2F",
"w 	c #FA8E6B",
"x 	c #666659",
"y 	c #69684D",
"z 	c #8F8C2F",
"A 	c #E6E040",
"B 	c #908D2F",
"C 	c #FFFB7E",
"D 	c #202010",
"E 	c #7B793D",
"F 	c #7E7C3E",
"G 	c #3B3A1D",
"H 	c #3F3E1F",
"I 	c #454422",
"J 	c #0E0E07",
"K 	c #424121",
"L 	c #262513",
"M 	c #605E2F",
"N 	c #918E2F",
"O 	c #FFFB7D",
"P 	c #3A391C",
"Q 	c #414020",
"R 	c #403F1F",
"S 	c #3D3C1E",
"T 	c #928F2F",
"U 	c #FFFB7C",
"V 	c #757339",
"W 	c #CAC762",
"X 	c #727037",
"Y 	c #93902F",
"Z 	c #FEFA7B",
"` 	c #3B3A1C",
" .	c #CDCA63",
"..	c #716F37",
"+.	c #706E36",
"@.	c #3F3E1E",
"#.	c #262512",
"$.	c #78763A",
"%.	c #94912F",
"&.	c #FEFA7A",
"*.	c #424120",
"=.	c #3E3D1E",
"-.	c #FBF779",
";.	c #FCF879",
">.	c #41401F",
",.	c #95922F",
"'.	c #A2A04E",
").	c #9F9D4D",
"!.	c #7A783A",
"~.	c #BAB759",
"{.	c #BEBB5B",
"].	c #7D7B3C",
"^.	c #FEFA79",
"/.	c #E0DD6B",
"(.	c #64622F",
"_.	c #403F1E",
":.	c #63612F",
"<.	c #E2DF6C",
"[.	c #545228",
"}.	c #6F6E4C",
"|.	c #A39F2F",
"1.	c #FAF56B",
"  . + + + + + + + + + + + + + + + + + + + + + + + + + + .   ",
". + @ @ @ @ @ @ @ @ @ @ @ @ @ @ @ @ @ @ @ @ @ @ @ @ @ @ + . ",
"+ @ # # $ % # # & $ # * # # # = - = ; = > # , = = ' # # # + ",
") @ ! ! ~ { ! ! ] ^ ! / ! ! ! = ! ! / ! ! ! / ! ! ! ! ! ! ) ",
"( @ _ _ / : < < [ = _ / _ _ _ = _ _ / _ _ _ / _ _ _ _ _ _ ( ",
"} @ | | / 1 2 3 4 = | / | | | = | | / | | | 5 = = 6 | | | } ",
"7 @ 8 8 9 8 0 a 8 a 8 b c 8 d e 8 8 9 8 8 8 9 8 8 8 8 8 8 7 ",
"f @ g g 9 g h i g a g j k g l m g g 9 g g g 9 g g g g g g f ",
"n @ g g 9 g g g g a g o p q r s g g 9 g g g 5 a a t g g g n ",
"u v w w w w w w w w w w w w w w w w w w w w w w w w w w v u ",
"  u v v v v v v v v v v v v v v v v v v v v v v v v v v u   ",
"x y z z z z z z z z z z z z z z z z z z z z z z z z z z y x ",
"y z A A A A A A A A A A A A A A A A A A A A A A A A A A z y ",
"B A C C D E C C F D C G C C C H I H J H K C L H H M C C C B ",
"N A O O P Q O O R S O G O O O H O O G O O O G O O O O O O N ",
"T A U U G V W W X H U G U U U H U U G U U U G U U U U U U T ",
"Y A Z Z `  ...+.W @.Z ` Z Z Z @.Z Z ` Z Z Z #.@.@.$.Z Z Z Y ",
"%.A &.&.` &.*.@.&.@.&.=.-.&.;.>.&.&.` &.&.&.` &.&.&.&.&.&.%.",
",.A &.&.` &.'.).&.@.&.!.~.&.{.].&.&.` &.&.&.` &.&.&.&.&.&.,.",
",.A ^.^.` ^.^.^.^.@.^./.(._.:.<.^.^.` ^.^.^.#.@.@.[.^.^.^.,.",
"}.|.1.1.1.1.1.1.1.1.1.1.1.1.1.1.1.1.1.1.1.1.1.1.1.1.1.1.|.}.",
"x }.|.|.|.|.|.|.|.|.|.|.|.|.|.|.|.|.|.|.|.|.|.|.|.|.|.|.}.x "};
