/* XPM */
char const * b_pre7_xpm[] = {
"13 13 41 1",
" 	c #595966",
".	c #4D6956",
"+	c #2F8F2F",
"@	c #40E640",
"#	c #7FFF7F",
"$	c #2F902F",
"%	c #7EFF7E",
"&	c #66CF66",
"*	c #172F17",
"=	c #132713",
"-	c #142914",
";	c #2F912F",
">	c #7DFF7D",
",	c #51A551",
"'	c #377137",
")	c #2F922F",
"!	c #7CFF7C",
"~	c #2A572A",
"{	c #5DBF5D",
"]	c #2F932F",
"^	c #7BFE7B",
"/	c #79F979",
"(	c #102110",
"_	c #79FA79",
":	c #2F942F",
"<	c #7AFE7A",
"[	c #59BA59",
"}	c #2C5B2C",
"|	c #2F952F",
"1	c #346D34",
"2	c #51A851",
"3	c #79FE79",
"4	c #122612",
"5	c #72F072",
"6	c #2F962F",
"7	c #78FE78",
"8	c #63D163",
"9	c #204520",
"0	c #4C6F55",
"a	c #2FA32F",
"b	c #6BFA6B",
" .+++++++++. ",
".+@@@@@@@@@+.",
"+@##########+",
"$@%%&**=-%%%$",
";@>>>>>,'>>>;",
")@!!!!!~{!!!)",
"]@^^^^/(_^^^]",
":@<<<<[}<<<<:",
"|@<<<<12<<<<|",
"|@3333453333|",
"6@77789777776",
"0abbbbbbbbba0",
" 0aaaaaaaaa0 "};
