/* XPM */
char const * b_pre5_xpm[] = {
"13 13 43 1",
" 	c #595966",
".	c #4D6956",
"+	c #2F8F2F",
"@	c #40E640",
"#	c #7FFF7F",
"$	c #2F902F",
"%	c #7EFF7E",
"&	c #0A150A",
"*	c #172F17",
"=	c #57B157",
"-	c #2F912F",
";	c #7DFF7D",
">	c #2F922F",
",	c #7CFF7C",
"'	c #2F932F",
")	c #7BFE7B",
"!	c #0C180C",
"~	c #397739",
"{	c #73ED73",
"]	c #2F942F",
"^	c #7AFE7A",
"/	c #6FE86F",
"(	c #78F978",
"_	c #3F833F",
":	c #418641",
"<	c #2F952F",
"[	c #6FE76F",
"}	c #204220",
"|	c #79FE79",
"1	c #6FE96F",
"2	c #78FC78",
"3	c #459045",
"4	c #408540",
"5	c #2F962F",
"6	c #78FE78",
"7	c #51AB51",
"8	c #142A14",
"9	c #173117",
"0	c #316931",
"a	c #6EE96E",
"b	c #4C6F55",
"c	c #2FA32F",
"d	c #6BFA6B",
" .+++++++++. ",
".+@@@@@@@@@+.",
"+@##########+",
"$@%%%&**=%%%$",
"-@;;;*;;;;;;-",
">@,,,*,,,,,,>",
"'@)))!*~{)))'",
"]@^^^/(_:^^^]",
"<@^^^^^[}^^^<",
"<@||12|34|||<",
"5@667890a6665",
"bcdddddddddcb",
" bcccccccccb "};
