/* XPM */
char const * b_pre6_xpm[] = {
"13 13 56 1",
" 	c #595966",
".	c #4D6956",
"+	c #2F8F2F",
"@	c #40E640",
"#	c #7FFF7F",
"$	c #2F902F",
"%	c #7EFF7E",
"&	c #428642",
"*	c #132713",
"=	c #132613",
"-	c #56AF56",
";	c #2F912F",
">	c #7DFF7D",
",	c #5CBC5C",
"'	c #2C5A2C",
")	c #73EB73",
"!	c #7CFD7C",
"~	c #74EC74",
"{	c #2F922F",
"]	c #7CFF7C",
"^	c #397639",
"/	c #64CD64",
"(	c #2F932F",
"_	c #7BFE7B",
":	c #1B391B",
"<	c #377237",
"[	c #193319",
"}	c #3D7F3D",
"|	c #74EF74",
"1	c #2F942F",
"2	c #7AFE7A",
"3	c #142A14",
"4	c #4EA14E",
"5	c #77F777",
"6	c #3C7D3C",
"7	c #448E44",
"8	c #2F952F",
"9	c #336B33",
"0	c #7AFD7A",
"a	c #6CE06C",
"b	c #234A23",
"c	c #79FE79",
"d	c #479447",
"e	c #57B757",
"f	c #459045",
"g	c #418841",
"h	c #2F962F",
"i	c #78FE78",
"j	c #73F373",
"k	c #265126",
"l	c #142B14",
"m	c #306630",
"n	c #6FEA6F",
"o	c #4C6F55",
"p	c #2FA32F",
"q	c #6BFA6B",
" .+++++++++. ",
".+@@@@@@@@@+.",
"+@##########+",
"$@%%%&*=-%%%$",
";@>>,')!~>>>;",
"{@]]^/]]]]]]{",
"(@__:<[}|___(",
"1@22345672221",
"8@22902ab2228",
"8@ccdecfgccc8",
"h@iijklmniiih",
"opqqqqqqqqqpo",
" opppppppppo "};
