/* XPM */
char const * b_pre4_xpm[] = {
"13 13 38 1",
" 	c #595966",
".	c #4D6956",
"+	c #2F8F2F",
"@	c #40E640",
"#	c #7FFF7F",
"$	c #2F902F",
"%	c #7EFF7E",
"&	c #408140",
"*	c #142814",
"=	c #2F912F",
"-	c #7DFF7D",
";	c #72E872",
">	c #2B572B",
",	c #152B15",
"'	c #2F922F",
")	c #7CFF7C",
"!	c #346A34",
"~	c #66D266",
"{	c #2F932F",
"]	c #7BFE7B",
"^	c #68D668",
"/	c #2F622F",
"(	c #2F942F",
"_	c #7AFE7A",
":	c #295629",
"<	c #6BDF6B",
"[	c #2F952F",
"}	c #122512",
"|	c #0F1F0F",
"1	c #020502",
"2	c #285428",
"3	c #79FE79",
"4	c #142B14",
"5	c #2F962F",
"6	c #78FE78",
"7	c #4C6F55",
"8	c #2FA32F",
"9	c #6BFA6B",
" .+++++++++. ",
".+@@@@@@@@@+.",
"+@##########+",
"$@%%%%&*%%%%$",
"=@---;>,----=",
"'@)))!~,))))'",
"{@]]^/],]]]]{",
"(@__:<_,____(",
"[@__}||12___[",
"[@3333343333[",
"5@66666466665",
"7899999999987",
" 78888888887 "};
