/* XPM */
char const * b_pre8_xpm[] = {
"13 13 53 1",
" 	c #595966",
".	c #4D6956",
"+	c #2F8F2F",
"@	c #40E640",
"#	c #7FFF7F",
"$	c #2F902F",
"%	c #7EFF7E",
"&	c #58B358",
"*	c #1B371B",
"=	c #1E3C1E",
"-	c #61C561",
";	c #2F912F",
">	c #7DFF7D",
",	c #1C391C",
"'	c #74EC74",
")	c #66D166",
"!	c #274F27",
"~	c #2F922F",
"{	c #7CFF7C",
"]	c #234823",
"^	c #6DE06D",
"/	c #5EC25E",
"(	c #306230",
"_	c #2F932F",
":	c #7BFE7B",
"<	c #6BDD6B",
"[	c #091309",
"}	c #0E1D0E",
"|	c #73EE73",
"1	c #2F942F",
"2	c #7AFE7A",
"3	c #275227",
"4	c #61C961",
"5	c #51A851",
"6	c #367136",
"7	c #2F952F",
"8	c #173017",
"9	c #73EF73",
"0	c #1D3C1D",
"a	c #79FE79",
"b	c #265126",
"c	c #67D967",
"d	c #58B958",
"e	c #346E34",
"f	c #2F962F",
"g	c #78FE78",
"h	c #5DC45D",
"i	c #1D3E1D",
"j	c #214621",
"k	c #64D464",
"l	c #4C6F55",
"m	c #2FA32F",
"n	c #6BFA6B",
" .+++++++++. ",
".+@@@@@@@@@+.",
"+@##########+",
"$@%%%&*=-%%%$",
";@>>>,')!>>>;",
"~@{{{]^/({{{~",
"_@:::<[}|:::_",
"1@22234562221",
"7@22282902227",
"7@aaabcdeaaa7",
"f@ggghijkgggf",
"lmnnnnnnnnnml",
" lmmmmmmmmml "};
