/* XPM */
char const * b_save_xpm[] = {
"13 13 23 1",
" 	c None",
".	c #665959",
"+	c #694D4D",
"@	c #8F2F2F",
"#	c #E64040",
"$	c #FF7F7F",
"%	c #FA6B6B",
"&	c #902F2F",
"*	c #FF7E7E",
"=	c #912F2F",
"-	c #FF7D7D",
";	c #922F2F",
">	c #FF7C7C",
",	c #932F2F",
"'	c #FE7B7B",
")	c #942F2F",
"!	c #FE7A7A",
"~	c #952F2F",
"{	c #FE7979",
"]	c #962F2F",
"^	c #FE7878",
"/	c #6F4C4C",
"(	c #A32F2F",
".+@@@@@@@@@+.",
"+@#########@+",
"@#$$$$$$$$$%@",
"&#*********%&",
"=#---------%=",
";#>>>>>>>>>%;",
",#'''''''''%,",
")#!!!!!!!!!%)",
"~#!!!!!!!!!%~",
"~#{{{{{{{{{%~",
"]#^^^^^^^^^%]",
"/(%%%%%%%%%(/",
"./(((((((((/."};
