/* XPM */
char const * b_solo_xpm[] = {
"30 22 144 2",
"  	c #665963",
". 	c #694D62",
"+ 	c #8F2F75",
"@ 	c #E640BA",
"# 	c #FF7FDD",
"$ 	c #BF5FA6",
"% 	c #422139",
"& 	c #3B1D33",
"* 	c #984C84",
"= 	c #FE7FDC",
"- 	c #AF5798",
"; 	c #4A2540",
"> 	c #902F76",
", 	c #FF7EDD",
"' 	c #4D2643",
") 	c #EE76CE",
"! 	c #F077D0",
"~ 	c #BC5DA3",
"{ 	c #5E2E51",
"] 	c #F177D1",
"^ 	c #613054",
"/ 	c #BD5DA4",
"( 	c #912F77",
"_ 	c #FF7DDD",
": 	c #B5599D",
"< 	c #FD7CDB",
"[ 	c #6D355E",
"} 	c #D166B5",
"| 	c #D568B9",
"1 	c #6E365F",
"2 	c #922F78",
"3 	c #FF7CDD",
"4 	c #DA6ABD",
"5 	c #542949",
"6 	c #2B1525",
"7 	c #C45FAA",
"8 	c #3E1E36",
"9 	c #FE7CDC",
"0 	c #412038",
"a 	c #932F78",
"b 	c #FE7BDC",
"c 	c #D969BC",
"d 	c #4A2440",
"e 	c #D165B5",
"f 	c #D467B8",
"g 	c #6E355F",
"h 	c #3B1C33",
"i 	c #942F79",
"j 	c #FE7ADB",
"k 	c #DD6ABF",
"l 	c #EB71CB",
"m 	c #522746",
"n 	c #BA59A1",
"o 	c #612E53",
"p 	c #F073CF",
"q 	c #F174D0",
"r 	c #643056",
"s 	c #BB5AA1",
"t 	c #952F7A",
"u 	c #622F54",
"v 	c #47223D",
"w 	c #C05CA6",
"x 	c #FC79D9",
"y 	c #AA5293",
"z 	c #49233F",
"A 	c #4A2340",
"B 	c #271321",
"C 	c #43203A",
"D 	c #703660",
"E 	c #6F4C65",
"F 	c #A32F84",
"G 	c #FA6BD5",
"H 	c #665959",
"I 	c #694D4D",
"J 	c #8F2F2F",
"K 	c #E64040",
"L 	c #FF7F7F",
"M 	c #BF5F5F",
"N 	c #422121",
"O 	c #3B1D1D",
"P 	c #984C4C",
"Q 	c #FE7F7F",
"R 	c #AF5757",
"S 	c #4A2525",
"T 	c #902F2F",
"U 	c #FF7E7E",
"V 	c #4D2626",
"W 	c #EE7676",
"X 	c #F07777",
"Y 	c #BC5D5D",
"Z 	c #5E2E2E",
"` 	c #F17777",
" .	c #613030",
"..	c #BD5D5D",
"+.	c #912F2F",
"@.	c #FF7D7D",
"#.	c #B55959",
"$.	c #FD7C7C",
"%.	c #6D3535",
"&.	c #D16666",
"*.	c #D56868",
"=.	c #6E3636",
"-.	c #922F2F",
";.	c #FF7C7C",
">.	c #DA6A6A",
",.	c #542929",
"'.	c #2B1515",
").	c #C45F5F",
"!.	c #3E1E1E",
"~.	c #FE7C7C",
"{.	c #412020",
"].	c #932F2F",
"^.	c #FE7B7B",
"/.	c #D96969",
"(.	c #4A2424",
"_.	c #D16565",
":.	c #D46767",
"<.	c #6E3535",
"[.	c #3B1C1C",
"}.	c #942F2F",
"|.	c #FE7A7A",
"1.	c #DD6A6A",
"2.	c #EB7171",
"3.	c #522727",
"4.	c #BA5959",
"5.	c #612E2E",
"6.	c #F07373",
"7.	c #F17474",
"8.	c #643030",
"9.	c #BB5A5A",
"0.	c #952F2F",
"a.	c #622F2F",
"b.	c #472222",
"c.	c #C05C5C",
"d.	c #FC7979",
"e.	c #AA5252",
"f.	c #492323",
"g.	c #4A2323",
"h.	c #271313",
"i.	c #432020",
"j.	c #703636",
"k.	c #6F4C4C",
"l.	c #A32F2F",
"m.	c #FA6B6B",
"  . + + + + + + + + + + + + + + + + + + + + + + + + + + .   ",
". + @ @ @ @ @ @ @ @ @ @ @ @ @ @ @ @ @ @ @ @ @ @ @ @ @ @ + . ",
"+ @ # # $ % & * # = - ; ; - = # & # # # = - ; ; - = # # # + ",
"> @ , , ' ) , ! , ~ { ! ] ^ / , & , , , ~ { ! ] ^ / , , , > ",
"( @ _ _ ' : < _ _ [ } _ _ | 1 _ & _ _ _ [ } _ _ | 1 _ _ _ ( ",
"2 @ 3 3 4 5 6 7 3 8 9 3 3 3 0 3 & 3 3 3 8 9 3 3 3 0 3 3 3 2 ",
"a @ b b b b c d b [ e b b f g b h b b b [ e b b f g b b b a ",
"i @ j j k j l m j n o p q r s j h j j j n o p q r s j j j i ",
"t @ j j u h v w j x y z A y x j B C C D x y z A y x j j j t ",
"E F G G G G G G G G G G G G G G G G G G G G G G G G G G F E ",
"  E F F F F F F F F F F F F F F F F F F F F F F F F F F E   ",
"H I J J J J J J J J J J J J J J J J J J J J J J J J J J I H ",
"I J K K K K K K K K K K K K K K K K K K K K K K K K K K J I ",
"J K L L M N O P L Q R S S R Q L O L L L Q R S S R Q L L L J ",
"T K U U V W U X U Y Z X `  ...U O U U U Y Z X `  ...U U U T ",
"+.K @.@.V #.$.@.@.%.&.@.@.*.=.@.O @.@.@.%.&.@.@.*.=.@.@.@.+.",
"-.K ;.;.>.,.'.).;.!.~.;.;.;.{.;.O ;.;.;.!.~.;.;.;.{.;.;.;.-.",
"].K ^.^.^.^./.(.^.%._.^.^.:.<.^.[.^.^.^.%._.^.^.:.<.^.^.^.].",
"}.K |.|.1.|.2.3.|.4.5.6.7.8.9.|.[.|.|.|.4.5.6.7.8.9.|.|.|.}.",
"0.K |.|.a.[.b.c.|.d.e.f.g.e.d.|.h.i.i.j.d.e.f.g.e.d.|.|.|.0.",
"k.l.m.m.m.m.m.m.m.m.m.m.m.m.m.m.m.m.m.m.m.m.m.m.m.m.m.m.l.k.",
"H k.l.l.l.l.l.l.l.l.l.l.l.l.l.l.l.l.l.l.l.l.l.l.l.l.l.l.k.H "};
