/* XPM */
char const * b_zlm_xpm[] = {
"13 13 22 1",
" 	c #665966",
".	c #694D69",
"+	c #8F2F8F",
"@	c #E640E6",
"#	c #FF7FFF",
"$	c #902F90",
"%	c #FF7EFF",
"&	c #912F91",
"*	c #FF7DFF",
"=	c #922F92",
"-	c #FF7CFF",
";	c #932F93",
">	c #FE7BFE",
",	c #942F94",
"'	c #FE7AFE",
")	c #952F95",
"!	c #FE79FE",
"~	c #962F96",
"{	c #FE78FE",
"]	c #6F4C6F",
"^	c #A32FA3",
"/	c #FA6BFA",
" .+++++++++. ",
".+@@@@@@@@@+.",
"+@##########+",
"$@%%%%%%%%%%$",
"&@**********&",
"=@----------=",
";@>>>>>>>>>>;",
",@'''''''''',",
")@'''''''''')",
")@!!!!!!!!!!)",
"~@{{{{{{{{{{~",
"]^/////////^]",
" ]^^^^^^^^^] "};
