/* XPM */
char const * iomixer_r_xpm[] = {
"36 253 81 1",
" 	c #595966",
".	c #2E3038",
"+	c #333342",
"@	c #2F2F3B",
"#	c #27272B",
"$	c #616176",
"%	c #4F4F5D",
"&	c #474752",
"*	c #28282B",
"=	c #4E4E5C",
"-	c #F1F1F2",
";	c #ABABB2",
">	c #696975",
",	c #C3C3C7",
"'	c #DFDFE2",
")	c #E3E3E5",
"!	c #93939C",
"~	c #28282C",
"{	c #4D4D5A",
"]	c #E5E5E7",
"^	c #D0D0D3",
"/	c #D0D0D4",
"(	c #E4E4E6",
"_	c #BEBEC3",
":	c #757580",
"<	c #52525F",
"[	c #676772",
"}	c #29292C",
"|	c #4C4C59",
"1	c #BCBCC1",
"2	c #61616D",
"3	c #62626D",
"4	c #BBBBC0",
"5	c #D9D9DC",
"6	c #5D5D69",
"7	c #29292D",
"8	c #4B4B59",
"9	c #E3E3E6",
"0	c #86868F",
"a	c #96969E",
"b	c #97979F",
"c	c #85858E",
"d	c #8D8D96",
"e	c #F0F0F1",
"f	c #C2C2C7",
"g	c #787883",
"h	c #2A2A2D",
"i	c #4C4C58",
"j	c #E4E4E5",
"k	c #555561",
"l	c #C8C8CB",
"m	c #C8C8CC",
"n	c #545460",
"o	c #5A5A65",
"p	c #97979E",
"q	c #DEDEE0",
"r	c #A0A0A7",
"s	c #2A2A2E",
"t	c #4B4B58",
"u	c #C9C9CD",
"v	c #575763",
"w	c #DCDCDE",
"x	c #2B2B2E",
"y	c #4B4B57",
"z	c #75757F",
"A	c #7E7E86",
"B	c #7C7C84",
"C	c #B9B9BE",
"D	c #2B2B2F",
"E	c #494955",
"F	c #B8B8BD",
"G	c #DBDBDD",
"H	c #BEBEC2",
"I	c #64646E",
"J	c #32323E",
"K	c #313136",
"L	c #000000",
"M	c #474951",
"N	c #404044",
"O	c #7A7A8F",
"P	c #737384",
"                                    ",
" .................................. ",
" .................................. ",
" ..+@#########@+....+@#########@+.. ",
" ..@#$$$$$$$$$#@....@#$$$$$$$$$#@.. ",
" ..#$%%%%%%%%%&#....#$%%%%%%%%%&#.. ",
" ..*$==-;==;-=&*....*$==>,')!==&*.. ",
" ..~${{]^{{/({&~....~${{_:{<[{{&~.. ",
" ..}$||(1234(|&}....}$||56|||||&}.. ",
" ..7$8890abc98&7....7$88defg888&7.. ",
" ..h$iijklmnji&h....h$iiiopqrii&h.. ",
" ..s$tt)tumt)t&s....s$tttttvwtt&s.. ",
" ..x$yy)yzzy)y&x....x$yyAiyBCyy&x.. ",
" ..D$EE)EEEE)E&D....D$EEF]GHIEE&D.. ",
" ..JK&&&&&&&&&KJ....JK&&&&&&&&&KJ.. ",
" ..+JKKKKKKKKKJ+....+JKKKKKKKKKJ+.. ",
" .................................. ",
" .................................. ",
" .................................. ",
" ..LLLLLLLLLLLLLLLLLLLLLLLLLLLLLL.. ",
" ..LLLLLLLLLLLLLLLLLLLLLLLLLLLLLL.. ",
" ..LLLLLLLLLLLLLLLLLLLLLLLLLLLLLL.. ",
" ..LLLLLLLLLLLLLLLLLLLLLLLLLLLLLL.. ",
" ..LLLLLLLLLLLLLLLLLLLLLLLLLLLLLL.. ",
" ..LLLLLLLLLLLLLLLLLLLLLLLLLLLLLL.. ",
" ..LLLLLLLLLLLLLLLLLLLLLLLLLLLLLL.. ",
" ..LLLLLLLLLLLLLLLLLLLLLLLLLLLLLL.. ",
" ..LLLLLLLLLLLLLLLLLLLLLLLLLLLLLL.. ",
" ..LLLLLLLLLLLLLLLLLLLLLLLLLLLLLL.. ",
" ..LLLLLLLLLLLLLLLLLLLLLLLLLLLLLL.. ",
" ..LLLLLLLLLLLLLLLLLLLLLLLLLLLLLL.. ",
" ..LLLLLLLLLLLLLLLLLLLLLLLLLLLLLL.. ",
" .................................. ",
" .................................. ",
" .................................. ",
" .................................. ",
" ..LLLLLLLLLLLLLLLLLLLLLLLLLLLLLL.. ",
" ..LLLLLLLLLLLLLLLLLLLLLLLLLLLLLL.. ",
" ..LLLLLLLLLLLLLLLLLLLLLLLLLLLLLL.. ",
" ..LLLLLLLLLLLLLLLLLLLLLLLLLLLLLL.. ",
" ..LLLLLLLLLLLLLLLLLLLLLLLLLLLLLL.. ",
" ..LLLLLLLLLLLLLLLLLLLLLLLLLLLLLL.. ",
" ..LLLLLLLLLLLLLLLLLLLLLLLLLLLLLL.. ",
" ..LLLLLLLLLLLLLLLLLLLLLLLLLLLLLL.. ",
" ..LLLLLLLLLLLLLLLLLLLLLLLLLLLLLL.. ",
" ..LLLLLLLLLLLLLLLLLLLLLLLLLLLLLL.. ",
" ..LLLLLLLLLLLLLLLLLLLLLLLLLLLLLL.. ",
" ..LLLLLLLLLLLLLLLLLLLLLLLLLLLLLL.. ",
" ..LLLLLLLLLLLLLLLLLLLLLLLLLLLLLL.. ",
" .................................. ",
" .................................. ",
" .................................. ",
" .................................. ",
" .................................. ",
" .................................. ",
" .................................. ",
" .................................. ",
" ..................LLLLLLLLLL...... ",
" ........#$........LLLLLLLLLL...... ",
" ........#$........LLLLLLLLLL...... ",
" ........#$........LLLLLLLLLL...... ",
" ........#$........LLLLLLLLLL...... ",
" ........#$........LLLLLLLLLL...... ",
" ........#$........LLLLLLLLLL...... ",
" ........#$........LLLLLLLLLL...... ",
" ........#$........LLLLLLLLLL...... ",
" ........#$........LLLLLLLLLL...... ",
" ........#$........LLLLLLLLLL...... ",
" .MMMMMMMNOMMM.....LLLLLLLLLL...... ",
" ........#$........LLLLLLLLLL...... ",
" ........#$........LLLLLLLLLL...... ",
" ........#$........LLLLLLLLLL...... ",
" ........#$........LLLLLLLLLL...... ",
" ........#$........LLLLLLLLLL...... ",
" ........#$........LLLLLLLLLL...... ",
" ........#$........LLLLLLLLLL...... ",
" ........#$........LLLLLLLLLL...... ",
" ........#$........LLLLLLLLLL...... ",
" ........#$........LLLLLLLLLL...... ",
" ........#$........LLLLLLLLLL...... ",
" ........#$........LLLLLLLLLL...... ",
" ........#$........LLLLLLLLLL...... ",
" ........#$........LLLLLLLLLL...... ",
" ........#$........LLLLLLLLLL...... ",
" ........#$........LLLLLLLLLL...... ",
" ........#$........LLLLLLLLLL...... ",
" ........#$........LLLLLLLLLL...... ",
" ........#$........LLLLLLLLLL...... ",
" .MMMMMMMNOMMM.....LLLLLLLLLL...... ",
" ........#$........LLLLLLLLLL...... ",
" ........#$........LLLLLLLLLL...... ",
" ........#$........LLLLLLLLLL...... ",
" ........#$........LLLLLLLLLL...... ",
" ........#$........LLLLLLLLLL...... ",
" ........#$........LLLLLLLLLL...... ",
" ........#$........LLLLLLLLLL...... ",
" ........#$........LLLLLLLLLL...... ",
" ........#$........LLLLLLLLLL...... ",
" ........#$........LLLLLLLLLL...... ",
" ........#$........LLLLLLLLLL...... ",
" ........#$........LLLLLLLLLL...... ",
" ........#$........LLLLLLLLLL...... ",
" ........#$........LLLLLLLLLL...... ",
" ........#$........LLLLLLLLLL...... ",
" ........#$........LLLLLLLLLL...... ",
" ........#$........LLLLLLLLLL...... ",
" .MMMMMMMNOMMM.....LLLLLLLLLL...... ",
" ........#$........LLLLLLLLLL...... ",
" ........#$........LLLLLLLLLL...... ",
" ........#$........LLLLLLLLLL...... ",
" ........#$........LLLLLLLLLL...... ",
" ........#$........LLLLLLLLLL...... ",
" ........#$........LLLLLLLLLL...... ",
" ........#$........LLLLLLLLLL...... ",
" ........#$........LLLLLLLLLL...... ",
" ........#$........LLLLLLLLLL...... ",
" ........#$........LLLLLLLLLL...... ",
" ........#$........LLLLLLLLLL...... ",
" ........#$........LLLLLLLLLL...... ",
" ........#$........LLLLLLLLLL...... ",
" ........#$........LLLLLLLLLL...... ",
" ........#$........LLLLLLLLLL...... ",
" ........#$........LLLLLLLLLL...... ",
" ........#$........LLLLLLLLLL...... ",
" .MMMMMMMNOMMM.....LLLLLLLLLL...... ",
" ........#$........LLLLLLLLLL...... ",
" ........#$........LLLLLLLLLL...... ",
" ........#$........LLLLLLLLLL...... ",
" ........#$........LLLLLLLLLL...... ",
" ........#$........LLLLLLLLLL...... ",
" ........#$........LLLLLLLLLL...... ",
" ........#$........LLLLLLLLLL...... ",
" ........#$........LLLLLLLLLL...... ",
" ........#$........LLLLLLLLLL...... ",
" ........#$........LLLLLLLLLL...... ",
" ........#$........LLLLLLLLLL...... ",
" ........#$........LLLLLLLLLL...... ",
" ........#$........LLLLLLLLLL...... ",
" ........#$........LLLLLLLLLL...... ",
" ........#$........LLLLLLLLLL...... ",
" .MMMMMMMNOMMM.....LLLLLLLLLL...... ",
" ........#$........LLLLLLLLLL...... ",
" ........#$........LLLLLLLLLL...... ",
" ........#$........LLLLLLLLLL...... ",
" ........#$........LLLLLLLLLL...... ",
" ........#$........LLLLLLLLLL...... ",
" ........#$........LLLLLLLLLL...... ",
" ........#$........LLLLLLLLLL...... ",
" ........#$........LLLLLLLLLL...... ",
" ........#$........LLLLLLLLLL...... ",
" ........#$........LLLLLLLLLL...... ",
" ........#$........LLLLLLLLLL...... ",
" ........#$........LLLLLLLLLL...... ",
" .MMMMMMMNOMMM.....LLLLLLLLLL...... ",
" ........#$........LLLLLLLLLL...... ",
" ........#$........LLLLLLLLLL...... ",
" ........#$........LLLLLLLLLL...... ",
" ........#$........LLLLLLLLLL...... ",
" ........#$........LLLLLLLLLL...... ",
" ........#$........LLLLLLLLLL...... ",
" ........#$........LLLLLLLLLL...... ",
" ........#$........LLLLLLLLLL...... ",
" ........#$........LLLLLLLLLL...... ",
" ........#$........LLLLLLLLLL...... ",
" ........#$........LLLLLLLLLL...... ",
" .MMMMMMMNOMMM.....LLLLLLLLLL...... ",
" ........#$........LLLLLLLLLL...... ",
" ........#$........LLLLLLLLLL...... ",
" ........#$........LLLLLLLLLL...... ",
" ........#$........LLLLLLLLLL...... ",
" ........#$........LLLLLLLLLL...... ",
" ........#$........LLLLLLLLLL...... ",
" ........#$........LLLLLLLLLL...... ",
" ........#$........LLLLLLLLLL...... ",
" .MMMMMMMNOMMM.....LLLLLLLLLL...... ",
" ........#$........LLLLLLLLLL...... ",
" ........#$........LLLLLLLLLL...... ",
" ........#$........LLLLLLLLLL...... ",
" ........#$........LLLLLLLLLL...... ",
" ........#$........LLLLLLLLLL...... ",
" ........#$........LLLLLLLLLL...... ",
" .MMMMMMMNOMMM.....LLLLLLLLLL...... ",
" ........#$........LLLLLLLLLL...... ",
" ........#$........LLLLLLLLLL...... ",
" ........#$........LLLLLLLLLL...... ",
" ........#$........LLLLLLLLLL...... ",
" .MMMMMMMNOMMM.....LLLLLLLLLL...... ",
" ........#$........LLLLLLLLLL...... ",
" ........#$........LLLLLLLLLL...... ",
" ........#$........LLLLLLLLLL...... ",
" ........#$........LLLLLLLLLL...... ",
" ........#$........LLLLLLLLLL...... ",
" ........#$........LLLLLLLLLL...... ",
" ........#$........LLLLLLLLLL...... ",
" ........#$........LLLLLLLLLL...... ",
" ........#$........LLLLLLLLLL...... ",
" ........#$........LLLLLLLLLL...... ",
" ........#$........LLLLLLLLLL...... ",
" ..................LLLLLLLLLL...... ",
" .................................. ",
" .................................. ",
" .................................. ",
" .................................. ",
" .................................. ",
" .................................. ",
" .................................. ",
" .................................. ",
" ..LLLLLLLLLLLLLLLLLLLLLLLLLLLLLL.. ",
" ..LLLLLLLLLLLLLLLLLLLLLLLLLLLLLL.. ",
" ..LLLLLLLLLLLLLLLLLLLLLLLLLLLLLL.. ",
" ..LLLLLLLLLLLLLLLLLLLLLLLLLLLLLL.. ",
" ..LLLLLLLLLLLLLLLLLLLLLLLLLLLLLL.. ",
" ..LLLLLLLLLLLLLLLLLLLLLLLLLLLLLL.. ",
" ..LLLLLLLLLLLLLLLLLLLLLLLLLLLLLL.. ",
" ..LLLLLLLLLLLLLLLLLLLLLLLLLLLLLL.. ",
" ..LLLLLLLLLLLLLLLLLLLLLLLLLLLLLL.. ",
" ..LLLLLLLLLLLLLLLLLLLLLLLLLLLLLL.. ",
" ..LLLLLLLLLLLLLLLLLLLLLLLLLLLLLL.. ",
" ..LLLLLLLLLLLLLLLLLLLLLLLLLLLLLL.. ",
" ..LLLLLLLLLLLLLLLLLLLLLLLLLLLLLL.. ",
" .................................. ",
" .................................. ",
" .................................. ",
" .................................. ",
" ..PPPPPPPPPPPPPPPPPPPPPPPPPPPPPP.. ",
" ..PPPPPPPPPPPPPPPPPPPPPPPPPPPPPP.. ",
" ..PPPPPPPPPPPPPPPPPPPPPPPPPPPPPP.. ",
" ..PPPPPPPPPPPPPPPPPPPPPPPPPPPPPP.. ",
" ..PPPPPPPPPPPPPPPPPPPPPPPPPPPPPP.. ",
" ..PPPPPPPPPPPPPPPPPPPPPPPPPPPPPP.. ",
" ..PPPPPPPPPPPPPPPPPPPPPPPPPPPPPP.. ",
" ..PPPPPPPPPPPPPPPPPPPPPPPPPPPPPP.. ",
" ..PPPPPPPPPPPPPPPPPPPPPPPPPPPPPP.. ",
" ..PPPPPPPPPPPPPPPPPPPPPPPPPPPPPP.. ",
" ..PPPPPPPPPPPPPPPPPPPPPPPPPPPPPP.. ",
" ..PPPPPPPPPPPPPPPPPPPPPPPPPPPPPP.. ",
" .................................. ",
" .................................. ",
" .................................. ",
" ..LLLLLLLLLLLLLLLLLLLLLLLLLLLLLL.. ",
" ..LLLLLLLLLLLLLLLLLLLLLLLLLLLLLL.. ",
" ..LLLLLLLLLLLLLLLLLLLLLLLLLLLLLL.. ",
" ..LLLLLLLLLLLLLLLLLLLLLLLLLLLLLL.. ",
" ..LLLLLLLLLLLLLLLLLLLLLLLLLLLLLL.. ",
" ..LLLLLLLLLLLLLLLLLLLLLLLLLLLLLL.. ",
" ..LLLLLLLLLLLLLLLLLLLLLLLLLLLLLL.. ",
" ..LLLLLLLLLLLLLLLLLLLLLLLLLLLLLL.. ",
" ..LLLLLLLLLLLLLLLLLLLLLLLLLLLLLL.. ",
" ..LLLLLLLLLLLLLLLLLLLLLLLLLLLLLL.. ",
" ..LLLLLLLLLLLLLLLLLLLLLLLLLLLLLL.. ",
" .................................. ",
" .................................. ",
"                                    "};
