/* XPM */
char const * level_xpm[] = {
"8 139 475 2",
"  	c #FD0D0E",
". 	c #FD0E0E",
"+ 	c #BD0707",
"@ 	c #FD1A0E",
"# 	c #FC1A0E",
"$ 	c #BD1408",
"% 	c #BC1407",
"& 	c #BC1307",
"* 	c #BC1308",
"= 	c #BD1407",
"- 	c #FC320F",
"; 	c #FC320E",
"> 	c #FC330E",
", 	c #FD320F",
"' 	c #FC330F",
") 	c #BC2008",
"! 	c #BC1F08",
"~ 	c #FC4A0F",
"{ 	c #FB4A0F",
"] 	c #FC4B0F",
"^ 	c #FB4B0F",
"/ 	c #FB4B10",
"( 	c #BC2C08",
"_ 	c #BC2B08",
": 	c #BB2C08",
"< 	c #FB6310",
"[ 	c #BB3808",
"} 	c #BA3808",
"| 	c #FB7B10",
"1 	c #FA7B11",
"2 	c #FB7C11",
"3 	c #FA7B10",
"4 	c #FA7C10",
"5 	c #FB7B11",
"6 	c #BB4409",
"7 	c #BA4509",
"8 	c #BA4409",
"9 	c #BB4509",
"0 	c #BA4408",
"a 	c #BB4508",
"b 	c #FA8C10",
"c 	c #FA8C11",
"d 	c #FB8C11",
"e 	c #BA5409",
"f 	c #BA5509",
"g 	c #FA9C11",
"h 	c #F99C11",
"i 	c #FA9C12",
"j 	c #BA6409",
"k 	c #B96409",
"l 	c #BA6309",
"m 	c #F9AC12",
"n 	c #FAAC12",
"o 	c #FAAC11",
"p 	c #FAAB12",
"q 	c #F9AC11",
"r 	c #B97409",
"s 	c #BA7409",
"t 	c #B97309",
"u 	c #F9BC11",
"v 	c #F9BB12",
"w 	c #F9BC12",
"x 	c #F9BB11",
"y 	c #B98309",
"z 	c #B98409",
"A 	c #F9CC12",
"B 	c #F9CC13",
"C 	c #F9CB12",
"D 	c #F9CB13",
"E 	c #F8CB12",
"F 	c #B8930A",
"G 	c #B99309",
"H 	c #B89309",
"I 	c #B9930A",
"J 	c #B9940A",
"K 	c #F9DB13",
"L 	c #F9DB12",
"M 	c #F8DB13",
"N 	c #F8DB12",
"O 	c #B8A30A",
"P 	c #B9A40A",
"Q 	c #B8A309",
"R 	c #F8EB13",
"S 	c #F8EA13",
"T 	c #F8EB12",
"U 	c #B6AE0A",
"V 	c #B6AF0A",
"W 	c #B7AE0A",
"X 	c #B7AF0A",
"Y 	c #B6AE09",
"Z 	c #F3EE13",
"` 	c #F3ED13",
" .	c #F4ED13",
"..	c #F3EE12",
"+.	c #F4EE13",
"@.	c #F4EE12",
"#.	c #B0AC09",
"$.	c #B0AD0A",
"%.	c #B1AD0A",
"&.	c #B1AD09",
"*.	c #B1AC0A",
"=.	c #B0AD09",
"-.	c #EDEC12",
";.	c #EEEC12",
">.	c #EDEC13",
",.	c #EDEB12",
"'.	c #AAAB09",
").	c #ABAB09",
"!.	c #E7EA11",
"~.	c #E7EA12",
"{.	c #E8EA12",
"].	c #E8EB12",
"^.	c #A4A909",
"/.	c #A5A909",
"(.	c #A5AA09",
"_.	c #E2E811",
":.	c #E1E812",
"<.	c #E1E811",
"[.	c #9EA809",
"}.	c #9EA709",
"|.	c #9FA709",
"1.	c #DCE611",
"2.	c #DCE610",
"3.	c #DBE711",
"4.	c #DBE611",
"5.	c #99A509",
"6.	c #99A609",
"7.	c #99A508",
"8.	c #D6E510",
"9.	c #D6E511",
"0.	c #D5E511",
"a.	c #D5E510",
"b.	c #92A408",
"c.	c #92A309",
"d.	c #92A308",
"e.	c #CFE310",
"f.	c #D0E310",
"g.	c #CFE20F",
"h.	c #CFE30F",
"i.	c #8CA208",
"j.	c #8DA208",
"k.	c #C9E110",
"l.	c #C9E10F",
"m.	c #CAE210",
"n.	c #CAE110",
"o.	c #86A108",
"p.	c #87A008",
"q.	c #86A008",
"r.	c #C3DF0F",
"s.	c #C4DF0F",
"t.	c #C3E00F",
"u.	c #819E08",
"v.	c #809F08",
"w.	c #809E08",
"x.	c #819F08",
"y.	c #809F07",
"z.	c #BEDE0F",
"A.	c #BDDE0F",
"B.	c #BDDE0E",
"C.	c #BDDD0F",
"D.	c #BEDE0E",
"E.	c #7B9D07",
"F.	c #7A9D08",
"G.	c #7B9D08",
"H.	c #B7DC0E",
"I.	c #B8DB0E",
"J.	c #B7DC0F",
"K.	c #759B07",
"L.	c #759A07",
"M.	c #749B07",
"N.	c #B2DA0D",
"O.	c #B1DA0D",
"P.	c #B1DA0E",
"Q.	c #B2DA0E",
"R.	c #6E9907",
"S.	c #6F9907",
"T.	c #6F9A07",
"U.	c #ACD80D",
"V.	c #ABD80D",
"W.	c #ACD90D",
"X.	c #ABD90D",
"Y.	c #689707",
"Z.	c #689706",
"`.	c #699707",
" +	c #A5D70C",
".+	c #A5D60C",
"++	c #A5D70D",
"@+	c #A6D70D",
"#+	c #A6D60D",
"$+	c #A6D70C",
"%+	c #A6D60C",
"&+	c #639506",
"*+	c #639507",
"=+	c #639607",
"-+	c #639606",
";+	c #9FD50D",
">+	c #9FD50C",
",+	c #A0D50D",
"'+	c #A0D50C",
")+	c #A0D40D",
"!+	c #A0D40C",
"~+	c #5D9406",
"{+	c #5C9406",
"]+	c #5D9306",
"^+	c #9AD30C",
"/+	c #99D30C",
"(+	c #9AD30B",
"_+	c #99D30B",
":+	c #569206",
"<+	c #94D10C",
"[+	c #94D10B",
"}+	c #93D10B",
"|+	c #93D10C",
"1+	c #519006",
"2+	c #509006",
"3+	c #8ECF0B",
"4+	c #8DD00A",
"5+	c #8DCF0B",
"6+	c #8ED00A",
"7+	c #8ED00B",
"8+	c #8DD00B",
"9+	c #4A8E05",
"0+	c #4B8E06",
"a+	c #4B8E05",
"b+	c #4B8F05",
"c+	c #88CD0A",
"d+	c #88CD0B",
"e+	c #87CD0A",
"f+	c #87CE0A",
"g+	c #87CE0B",
"h+	c #448C05",
"i+	c #458D05",
"j+	c #458C05",
"k+	c #458D06",
"l+	c #448D05",
"m+	c #82CC0A",
"n+	c #82CB0A",
"o+	c #81CB0A",
"p+	c #81CB09",
"q+	c #3F8B05",
"r+	c #3F8A05",
"s+	c #408B05",
"t+	c #408A05",
"u+	c #7CCA0A",
"v+	c #7CCA09",
"w+	c #7BCA0A",
"x+	c #7BCA09",
"y+	c #3D8A05",
"z+	c #3D8905",
"A+	c #79C909",
"B+	c #78C909",
"C+	c #78C90A",
"D+	c #79C809",
"E+	c #3C8905",
"F+	c #3B8905",
"G+	c #3C8805",
"H+	c #75C809",
"I+	c #75C709",
"J+	c #3A8705",
"K+	c #3A8805",
"L+	c #3A8704",
"M+	c #71C709",
"N+	c #71C609",
"O+	c #71C608",
"P+	c #71C708",
"Q+	c #388604",
"R+	c #388605",
"S+	c #388705",
"T+	c #388704",
"U+	c #6EC609",
"V+	c #6EC608",
"W+	c #6EC508",
"X+	c #378604",
"Y+	c #368504",
"Z+	c #378505",
"`+	c #6AC508",
" @	c #6BC508",
".@	c #6BC408",
"+@	c #358504",
"@@	c #358404",
"#@	c #348404",
"$@	c #67C408",
"%@	c #68C407",
"&@	c #68C408",
"*@	c #338304",
"=@	c #338404",
"-@	c #64C308",
";@	c #64C307",
">@	c #63C208",
",@	c #63C207",
"'@	c #318204",
")@	c #61C208",
"!@	c #61C107",
"~@	c #60C207",
"{@	c #61C207",
"]@	c #308204",
"^@	c #308104",
"/@	c #2F8204",
"(@	c #5DC107",
"_@	c #5DC007",
":@	c #5DC008",
"<@	c #2E8004",
"[@	c #2E8104",
"}@	c #59BF07",
"|@	c #59C006",
"1@	c #5AC007",
"2@	c #5ABF07",
"3@	c #59C007",
"4@	c #2C7F04",
"5@	c #2C7F03",
"6@	c #2C8004",
"7@	c #57BE07",
"8@	c #56BE07",
"9@	c #56BF06",
"0@	c #56BF07",
"a@	c #57BF06",
"b@	c #2A7F04",
"c@	c #2B7E03",
"d@	c #2B7E04",
"e@	c #2A7E03",
"f@	c #53BD06",
"g@	c #53BD07",
"h@	c #52BE07",
"i@	c #53BE06",
"j@	c #52BE06",
"k@	c #297D03",
"l@	c #297E04",
"m@	c #297E03",
"n@	c #4FBD06",
"o@	c #50BD06",
"p@	c #50BC06",
"q@	c #4FBC07",
"r@	c #4FBC06",
"s@	c #277D03",
"t@	c #277C03",
"u@	c #4CBC05",
"v@	c #4CBB06",
"w@	c #4CBC06",
"x@	c #267B03",
"y@	c #257B03",
"z@	c #257C03",
"A@	c #48BA06",
"B@	c #49BB06",
"C@	c #48BA05",
"D@	c #48BB06",
"E@	c #49BB05",
"F@	c #237A03",
"G@	c #247A03",
"H@	c #45BA06",
"I@	c #46BA05",
"J@	c #45BA05",
"K@	c #45B906",
"L@	c #227903",
"M@	c #227A03",
"N@	c #41B905",
"O@	c #41B906",
"P@	c #42B905",
"Q@	c #42B805",
"R@	c #207803",
"S@	c #207802",
"T@	c #207903",
"U@	c #3FB805",
"V@	c #3EB704",
"W@	c #3EB805",
"X@	c #3EB705",
"Y@	c #3FB705",
"Z@	c #1F7703",
"`@	c #1F7702",
" #	c #1E7703",
".#	c #1E7702",
"+#	c #3BB604",
"@#	c #3BB705",
"##	c #3BB605",
"$#	c #3AB605",
"%#	c #1D7602",
"&#	c #1D7603",
"*#	c #38B604",
"=#	c #38B504",
"-#	c #37B504",
";#	c #37B604",
">#	c #38B605",
",#	c #1B7502",
"'#	c #34B504",
")#	c #34B404",
"!#	c #197402",
"~#	c #1A7402",
"{#	c #30B404",
"]#	c #31B404",
"^#	c #31B304",
"/#	c #31B403",
"(#	c #30B304",
"_#	c #187302",
":#	c #2DB303",
"<#	c #2DB304",
"[#	c #2DB203",
"}#	c #2DB204",
"|#	c #167202",
"1#	c #2AB103",
"2#	c #29B203",
"3#	c #29B103",
"4#	c #2AB203",
"5#	c #147102",
"6#	c #26B003",
"7#	c #26B103",
"8#	c #27B102",
"9#	c #27B003",
"0#	c #126F01",
"a#	c #137002",
"b#	c #127002",
"c#	c #126F02",
"d#	c #137001",
"e#	c #136F01",
"f#	c #23AF03",
"g#	c #23B003",
"h#	c #23AF02",
"i#	c #116F02",
"j#	c #116F01",
"k#	c #20AF03",
"l#	c #20AF02",
"m#	c #1FAE02",
"n#	c #1FAF02",
"o#	c #0F6E02",
"p#	c #0F6E01",
"q#	c #0F6D01",
"r#	c #0F6D02",
"s#	c #1CAE02",
"t#	c #1CAE03",
"u#	c #1CAD03",
"v#	c #1DAD02",
"w#	c #0D6D01",
"x#	c #0E6D01",
"y#	c #19AC02",
"z#	c #18AC01",
"A#	c #19AC01",
"B#	c #18AC02",
"C#	c #0C6C01",
"D#	c #0C6B01",
"E#	c #15AC02",
"F#	c #15AB02",
"G#	c #15AC01",
"H#	c #0A6B01",
"I#	c #12AA01",
"J#	c #12AA02",
"K#	c #086A01",
"L#	c #0FA901",
"M#	c #0EA902",
"N#	c #0FAA01",
"O#	c #0EA901",
"P#	c #066901",
"Q#	c #076901",
"R#	c #0BA801",
"S#	c #056801",
"T#	c #056700",
"U#	c #056701",
"V#	c #07A701",
"W#	c #08A801",
"X#	c #07A801",
"Y#	c #08A700",
"Z#	c #08A800",
"`#	c #07A700",
" $	c #08A701",
".$	c #036701",
"+$	c #036600",
"@$	c #036700",
"#$	c #04A600",
"$$	c #05A601",
"%$	c #04A601",
"&$	c #05A600",
"*$	c #016600",
"=$	c #026600",
"-$	c #026500",
";$	c #01A500",
">$	c #00A500",
",$	c #01A501",
"'$	c #01A600",
"  . . .   . .   ",
"+ + + + + + + + ",
"@ # @ # @ @ @ @ ",
"$ % & & & * * = ",
"- - ; > , ' ; ' ",
") ! ! ! ! ) ! ) ",
"~ { ] ] ] ^ { / ",
"( _ ( : : : : : ",
"< < < < < < < < ",
"[ [ } [ [ [ [ } ",
"| 1 | 2 3 4 2 5 ",
"6 7 8 9 0 a 6 7 ",
"b b c c c c d b ",
"e e e f e f e e ",
"g g g h g h h i ",
"j k j j k k j l ",
"m n m m o p q q ",
"r s s r t r s r ",
"u v w v v w x v ",
"y y z z y y y y ",
"A B C C D E A A ",
"F G H I I G J I ",
"K K L L M L N K ",
"O P Q O O O Q Q ",
"R R R R S T R R ",
"U V W X X V V Y ",
"Z `  ...+.....@.",
"#.$.%.%.&.$.*.=.",
"-.;.>.;.,.-.;.-.",
"'.).'.).'.).).).",
"!.~.~.{.].].~.~.",
"^./.^.(././.^./.",
"_.:._.<._._.:._.",
"[.}.}.[.[.|.[.}.",
"1.2.3.3.1.3.4.3.",
"5.6.6.6.6.6.6.7.",
"8.9.0.8.0.a.0.8.",
"b.b.b.b.c.d.d.b.",
"e.f.e.f.g.f.h.f.",
"i.j.j.i.j.j.j.i.",
"k.l.k.l.l.m.k.n.",
"o.p.q.p.p.o.q.p.",
"r.s.r.s.s.s.t.s.",
"u.u.v.w.u.x.x.y.",
"z.A.B.z.C.A.A.D.",
"E.E.E.E.F.G.E.E.",
"H.I.H.H.J.H.J.I.",
"K.K.K.L.M.K.K.K.",
"N.O.O.N.O.P.Q.P.",
"R.S.S.T.R.R.S.R.",
"U.U.V.U.U.V.W.X.",
"Y.Y.Y.Y.Y.Z.Y.`.",
" +.+++@+.+#+$+%+",
"&+*+*+=+-+-+&+-+",
";+>+>+,+'+'+)+!+",
"~+{+~+~+]+{+]+~+",
"^+/+(+(+/+/+^+_+",
":+:+:+:+:+:+:+:+",
"<+[+[+[+[+}+<+|+",
"1+1+2+1+1+1+2+1+",
"3+3+4+5+6+5+7+8+",
"9+9+9+0+a+b+0+0+",
"c+d+e+e+f+e+e+g+",
"h+i+j+k+l+i+j+l+",
"m+n+m+o+p+o+o+o+",
"q+r+s+s+q+s+q+t+",
"u+v+v+u+u+v+w+x+",
"y+y+z+y+z+y+z+z+",
"A+B+C+B+A+B+D+C+",
"E+F+E+E+E+G+G+F+",
"H+H+I+H+H+H+H+H+",
"J+K+J+K+K+J+L+J+",
"M+N+O+M+M+P+M+P+",
"Q+R+Q+Q+S+Q+R+T+",
"U+U+V+W+U+U+U+U+",
"X+Y+Y+Y+X+Y+Y+Z+",
"`+ @.@ @.@ @`+`+",
"+@@@#@@@@@@@@@+@",
"$@$@$@$@$@%@&@&@",
"*@=@*@*@*@*@*@*@",
"-@-@;@>@-@-@,@-@",
"'@'@'@'@'@'@'@'@",
")@)@!@!@~@~@{@!@",
"]@]@^@^@^@^@^@/@",
"(@(@(@_@(@:@(@(@",
"<@<@<@<@<@<@[@<@",
"}@|@1@1@2@3@2@1@",
"4@5@4@6@5@4@6@4@",
"7@8@9@0@a@0@0@0@",
"b@c@b@d@c@e@d@c@",
"f@g@h@i@i@i@j@f@",
"k@k@l@m@k@k@k@k@",
"n@o@n@p@q@r@o@n@",
"s@t@t@t@t@t@t@t@",
"u@v@u@w@v@w@w@w@",
"x@y@z@y@y@y@x@y@",
"A@B@C@D@E@E@B@C@",
"F@G@G@G@F@G@F@F@",
"H@I@J@K@K@I@K@J@",
"L@M@L@L@L@M@L@L@",
"N@O@P@P@P@Q@P@N@",
"R@R@S@T@R@R@R@R@",
"U@V@W@U@X@W@Y@W@",
"Z@Z@Z@`@ #.#.#Z@",
"+#@#####@#####$#",
"%#&#&#&#%#%#%#&#",
"*#=#-#;#*#*#=#>#",
",#,#,#,#,#,#,#,#",
"'#)#'#'#'#'#'#)#",
"!#~#!#!#!#!#!#!#",
"{#]#^#{#/#(#^#/#",
"_#_#_#_#_#_#_#_#",
":#<#[#[#:#}#:#:#",
"|#|#|#|#|#|#|#|#",
"1#1#2#3#2#1#4#1#",
"5#5#5#5#5#5#5#5#",
"6#7#8#9#6#9#6#7#",
"0#a#b#0#c#a#d#e#",
"f#g#g#f#g#f#f#h#",
"i#j#i#j#i#i#i#i#",
"k#l#m#n#m#m#l#l#",
"o#o#p#q#p#o#r#p#",
"s#t#s#u#v#s#s#v#",
"w#x#w#w#x#w#w#w#",
"y#z#y#A#B#y#y#z#",
"C#C#C#C#C#C#C#D#",
"E#F#E#G#F#G#G#G#",
"H#H#H#H#H#H#H#H#",
"I#I#I#J#I#J#I#J#",
"K#K#K#K#K#K#K#K#",
"L#M#N#N#L#O#O#L#",
"P#Q#Q#P#Q#Q#Q#Q#",
"R#R#R#R#R#R#R#R#",
"S#T#S#S#S#U#S#U#",
"V#W#X#Y#Z#`# $Y#",
".$+$@$.$@$@$@$.$",
"#$$$%$#$#$#$#$&$",
"*$*$*$=$*$-$=$=$",
";$>$;$;$,$;$'$;$"};
