/* XPM */
char const * mute_xpm[] = {
"13 26 108 2",
"  	c #665C59",
". 	c #69544D",
"+ 	c #8F462F",
"@ 	c #E66840",
"# 	c #FF9E7F",
"$ 	c #90472F",
"% 	c #FF9D7E",
"& 	c #100907",
"* 	c #865242",
"= 	c #5E3A2E",
"- 	c #37221B",
"; 	c #91472F",
"> 	c #FF9D7D",
", 	c #291914",
"' 	c #492C23",
") 	c #FD9B7C",
"! 	c #3E261E",
"~ 	c #37211A",
"{ 	c #92472F",
"] 	c #FF9C7C",
"^ 	c #2F1C16",
"/ 	c #563429",
"( 	c #EE9173",
"_ 	c #C87A61",
": 	c #734637",
"< 	c #93472F",
"[ 	c #FE9B7B",
"} 	c #2E1C16",
"| 	c #9C5F4B",
"1 	c #A56550",
"2 	c #7C4C3C",
"3 	c #BD735B",
"4 	c #36211A",
"5 	c #94482F",
"6 	c #FE9A7A",
"7 	c #E58B6E",
"8 	c #5B382C",
"9 	c #482B22",
"0 	c #F19273",
"a 	c #95482F",
"b 	c #3F261E",
"c 	c #5F392D",
"d 	c #F29374",
"e 	c #FE9979",
"f 	c #B86F57",
"g 	c #CD7B61",
"h 	c #F29273",
"i 	c #96482F",
"j 	c #FE9978",
"k 	c #F29172",
"l 	c #362019",
"m 	c #6F554C",
"n 	c #A34B2F",
"o 	c #FA8E6B",
"p 	c #666659",
"q 	c #69684D",
"r 	c #8F8C2F",
"s 	c #E6E040",
"t 	c #FFFB7F",
"u 	c #908D2F",
"v 	c #FFFB7E",
"w 	c #100F07",
"x 	c #868342",
"y 	c #5E5C2E",
"z 	c #37361B",
"A 	c #918E2F",
"B 	c #FFFB7D",
"C 	c #292814",
"D 	c #494723",
"E 	c #FDF97C",
"F 	c #3E3D1E",
"G 	c #37361A",
"H 	c #928F2F",
"I 	c #FFFB7C",
"J 	c #2F2E16",
"K 	c #565429",
"L 	c #EEEA73",
"M 	c #C8C461",
"N 	c #737137",
"O 	c #93902F",
"P 	c #FEFA7B",
"Q 	c #2E2E16",
"R 	c #9C994B",
"S 	c #A5A250",
"T 	c #7C7A3C",
"U 	c #BDBA5B",
"V 	c #36351A",
"W 	c #94912F",
"X 	c #FEFA7A",
"Y 	c #E5E16E",
"Z 	c #5B5A2C",
"` 	c #484722",
" .	c #F1ED73",
"..	c #95922F",
"+.	c #3F3E1E",
"@.	c #5F5E2D",
"#.	c #F2EE74",
"$.	c #FEFA79",
"%.	c #B8B557",
"&.	c #CDC961",
"*.	c #F2EE73",
"=.	c #96932F",
"-.	c #FEFA78",
";.	c #F2EE72",
">.	c #363519",
",.	c #6F6E4C",
"'.	c #A39F2F",
").	c #FAF56B",
"  . + + + + + + + + + .   ",
". + @ @ @ @ @ @ @ @ @ + . ",
"+ @ # # # # # # # # # # + ",
"$ @ % % & * % % = - % % $ ",
"; @ > > , ' > ) ! ~ > > ; ",
"{ @ ] ] ^ / ( _ : ~ ] ] { ",
"< @ [ [ } | 1 2 3 4 [ [ < ",
"5 @ 6 6 } 7 8 9 0 4 6 6 5 ",
"a @ 6 6 } 6 b c d 4 6 6 a ",
"a @ e e } e f g h 4 e e a ",
"i @ j j } j j j k l j j i ",
"m n o o o o o o o o o n m ",
"  m n n n n n n n n n m   ",
"p q r r r r r r r r r q p ",
"q r s s s s s s s s s r q ",
"r s t t t t t t t t t t r ",
"u s v v w x v v y z v v u ",
"A s B B C D B E F G B B A ",
"H s I I J K L M N G I I H ",
"O s P P Q R S T U V P P O ",
"W s X X Q Y Z `  .V X X W ",
"..s X X Q X +.@.#.V X X ..",
"..s $.$.Q $.%.&.*.V $.$...",
"=.s -.-.Q -.-.-.;.>.-.-.=.",
",.'.).).).).).).).).).'.,.",
"p ,.'.'.'.'.'.'.'.'.'.,.p "};
