/* XPM */
char const * over_xpm[] = {
"30 13 2 1",
" 	c #000000",
".	c #FF0000",
"                              ",
"                              ",
"                              ",
"                              ",
"                        ..... ",
"                        ..... ",
"                        ..... ",
"                        ..... ",
"                        ..... ",
"                              ",
"                              ",
"                              ",
"                              "};
