/* XPM */
char const * peak_xpm[] = {
"8 5 3 1",
" 	c #EBE000",
".	c #FFFF45",
"+	c #FFFFAB",
"        ",
"........",
"++++++++",
"........",
"        "};
