/* XPM */
char const * Slider1_xpm[] = {
"13 12 29 1",
" 	c #484858",
".	c #565668",
"+	c #B4B4C4",
"@	c #8F8F9F",
"#	c #3A3A48",
"$	c #C8C8D8",
"%	c #A3A3B3",
"&	c #7E7E8E",
"*	c #BFBFCF",
"=	c #9A9AAA",
"-	c #747484",
";	c #B1B1C1",
">	c #8C8C9C",
",	c #676777",
"'	c #9B9BAB",
")	c #767686",
"!	c #515161",
"~	c #CBCBDB",
"{	c #B6B6C6",
"]	c #9191A1",
"^	c #C5C5D5",
"/	c #A0A0B0",
"(	c #7B7B8B",
"_	c #B0B0C0",
":	c #8B8B9B",
"<	c #666676",
"[	c #565666",
"}	c #707080",
"|	c #4C4C5C",
" ........... ",
".++++++++++@#",
".$%%%%%%%%%&#",
".*=========-#",
".;>>>>>>>>>,#",
".')))))))))!#",
".~{{{{{{{{{]#",
".^/////////(#",
"._:::::::::<#",
"./((((((((([#",
".}||||||||||#",
" ########### "};
