/* XPM */
char const * solo_xpm[] = {
"13 26 104 2",
"  	c #665963",
". 	c #694D62",
"+ 	c #8F2F75",
"@ 	c #E640BA",
"# 	c #FF7FDD",
"$ 	c #902F76",
"% 	c #FF7EDD",
"& 	c #D468B7",
"* 	c #532948",
"= 	c #2E1628",
"- 	c #2A1424",
"; 	c #B05699",
"> 	c #912F77",
", 	c #FF7DDD",
"' 	c #592B4D",
") 	c #D065B4",
"! 	c #F477D3",
"~ 	c #DF6DC1",
"{ 	c #922F78",
"] 	c #FF7CDD",
"^ 	c #35192E",
"/ 	c #EE73CE",
"( 	c #932F78",
"_ 	c #FE7BDC",
": 	c #9A4A85",
"< 	c #150A12",
"[ 	c #5B2C4E",
"} 	c #CA61AE",
"| 	c #942F79",
"1 	c #FE7ADB",
"2 	c #E66EC6",
"3 	c #8D437A",
"4 	c #261221",
"5 	c #A24D8C",
"6 	c #952F7A",
"7 	c #D666B8",
"8 	c #4C2441",
"9 	c #FE79DB",
"0 	c #B7579D",
"a 	c #FD78DA",
"b 	c #9E4B88",
"c 	c #803D6E",
"d 	c #962F7B",
"e 	c #FE78DB",
"f 	c #5E2C51",
"g 	c #23101E",
"h 	c #32182B",
"i 	c #612E53",
"j 	c #E66CC6",
"k 	c #6F4C65",
"l 	c #A32F84",
"m 	c #FA6BD5",
"n 	c #665959",
"o 	c #694D4D",
"p 	c #8F2F2F",
"q 	c #E64040",
"r 	c #FF7F7F",
"s 	c #902F2F",
"t 	c #FF7E7E",
"u 	c #D46868",
"v 	c #532929",
"w 	c #2E1616",
"x 	c #2A1414",
"y 	c #B05656",
"z 	c #912F2F",
"A 	c #FF7D7D",
"B 	c #592B2B",
"C 	c #D06565",
"D 	c #F47777",
"E 	c #DF6D6D",
"F 	c #922F2F",
"G 	c #FF7C7C",
"H 	c #351919",
"I 	c #EE7373",
"J 	c #932F2F",
"K 	c #FE7B7B",
"L 	c #9A4A4A",
"M 	c #150A0A",
"N 	c #5B2C2C",
"O 	c #CA6161",
"P 	c #942F2F",
"Q 	c #FE7A7A",
"R 	c #E66E6E",
"S 	c #8D4343",
"T 	c #261212",
"U 	c #A24D4D",
"V 	c #952F2F",
"W 	c #D66666",
"X 	c #4C2424",
"Y 	c #FE7979",
"Z 	c #B75757",
"` 	c #FD7878",
" .	c #9E4B4B",
"..	c #803D3D",
"+.	c #962F2F",
"@.	c #FE7878",
"#.	c #5E2C2C",
"$.	c #231010",
"%.	c #321818",
"&.	c #612E2E",
"*.	c #E66C6C",
"=.	c #6F4C4C",
"-.	c #A32F2F",
";.	c #FA6B6B",
"  . + + + + + + + + + .   ",
". + @ @ @ @ @ @ @ @ @ + . ",
"+ @ # # # # # # # # # # + ",
"$ @ % % & * = - ; % % % $ ",
"> @ , , ' ) , ! ~ , , , > ",
"{ @ ] ] ^ / ] ] ] ] ] ] { ",
"( @ _ _ : < [ } _ _ _ _ ( ",
"| @ 1 1 1 2 3 4 5 1 1 1 | ",
"6 @ 1 1 1 1 1 7 8 1 1 1 6 ",
"6 @ 9 9 0 a 9 b c 9 9 9 6 ",
"d @ e e f g h i j e e e d ",
"k l m m m m m m m m m l k ",
"  k l l l l l l l l l k   ",
"n o p p p p p p p p p o n ",
"o p q q q q q q q q q p o ",
"p q r r r r r r r r r r p ",
"s q t t u v w x y t t t s ",
"z q A A B C A D E A A A z ",
"F q G G H I G G G G G G F ",
"J q K K L M N O K K K K J ",
"P q Q Q Q R S T U Q Q Q P ",
"V q Q Q Q Q Q W X Q Q Q V ",
"V q Y Y Z ` Y  ...Y Y Y V ",
"+.q @.@.#.$.%.&.*.@.@.@.+.",
"=.-.;.;.;.;.;.;.;.;.;.-.=.",
"n =.-.-.-.-.-.-.-.-.-.=.n "};
